<?xml version="1.0" encoding="UTF-8"?>
<svg xmlns="http://www.w3.org/2000/svg" xmlns:xlink="http://www.w3.org/1999/xlink" width="100px" height="100px" viewBox="0 0 100 100" version="1.1">
<g id="surface1">
<path style=" stroke:none;fill-rule:nonzero;fill:rgb(29.019609%,47.843137%,99.607843%);fill-opacity:1;" d="M 49.925781 -0.0625 C 50.125 -0.0625 50.324219 -0.0585938 50.527344 -0.0585938 C 53.382812 -0.0507812 56.183594 0 58.984375 0.585938 C 59.175781 0.625 59.363281 0.664062 59.5625 0.703125 C 69.011719 2.679688 77.601562 6.960938 84.570312 13.671875 C 84.761719 13.855469 84.761719 13.855469 84.960938 14.046875 C 86.8125 15.832031 88.519531 17.648438 90.039062 19.726562 C 90.207031 19.953125 90.375 20.175781 90.542969 20.402344 C 91.722656 22 92.769531 23.664062 93.75 25.390625 C 93.820312 25.515625 93.890625 25.636719 93.964844 25.765625 C 98.1875 33.136719 100.09375 41.488281 100.0625 49.925781 C 100.0625 50.125 100.058594 50.324219 100.058594 50.527344 C 100.050781 53.382812 100 56.183594 99.414062 58.984375 C 99.355469 59.269531 99.355469 59.269531 99.296875 59.5625 C 97.320312 69.011719 93.039062 77.601562 86.328125 84.570312 C 86.203125 84.699219 86.082031 84.828125 85.953125 84.960938 C 84.167969 86.8125 82.351562 88.519531 80.273438 90.039062 C 80.046875 90.207031 79.824219 90.375 79.597656 90.542969 C 78 91.722656 76.339844 92.773438 74.609375 93.75 C 74.472656 93.828125 74.332031 93.90625 74.191406 93.988281 C 69.671875 96.53125 64.757812 98.242188 59.679688 99.28125 C 59.539062 99.308594 59.398438 99.335938 59.253906 99.367188 C 56.386719 99.910156 53.550781 100.066406 50.640625 100.0625 C 50.066406 100.0625 49.492188 100.066406 48.917969 100.070312 C 46.304688 100.078125 43.785156 99.84375 41.210938 99.414062 C 40.878906 99.359375 40.878906 99.359375 40.539062 99.300781 C 32.085938 97.785156 24.070312 93.882812 17.578125 88.28125 C 17.433594 88.15625 17.285156 88.035156 17.136719 87.90625 C 14.5 85.597656 12.023438 83.109375 9.960938 80.273438 C 9.792969 80.050781 9.625 79.824219 9.457031 79.601562 C 8.277344 78 7.226562 76.339844 6.25 74.609375 C 6.171875 74.472656 6.09375 74.332031 6.011719 74.191406 C 3.46875 69.671875 1.757812 64.757812 0.71875 59.679688 C 0.691406 59.539062 0.664062 59.398438 0.632812 59.253906 C 0.0507812 56.199219 -0.0742188 53.175781 -0.0625 50.074219 C -0.0625 49.875 -0.0585938 49.675781 -0.0585938 49.472656 C -0.0507812 46.617188 0 43.816406 0.585938 41.015625 C 0.625 40.824219 0.664062 40.636719 0.703125 40.4375 C 2.679688 30.988281 6.960938 22.398438 13.671875 15.429688 C 13.796875 15.300781 13.917969 15.171875 14.046875 15.039062 C 15.832031 13.1875 17.648438 11.480469 19.726562 9.960938 C 19.953125 9.792969 20.175781 9.625 20.402344 9.457031 C 22 8.277344 23.660156 7.226562 25.390625 6.25 C 25.527344 6.171875 25.667969 6.09375 25.808594 6.011719 C 30.328125 3.46875 35.242188 1.757812 40.320312 0.71875 C 40.460938 0.691406 40.601562 0.664062 40.746094 0.632812 C 43.800781 0.0507812 46.824219 -0.0742188 49.925781 -0.0625 Z M 49.925781 -0.0625 "/>
<path style=" stroke:none;fill-rule:nonzero;fill:rgb(0%,32.549021%,74.901962%);fill-opacity:1;" d="M 67.691406 16.527344 C 68.558594 17.171875 69.289062 17.871094 69.921875 18.75 C 69.921875 18.878906 69.921875 19.007812 69.921875 19.140625 C 70.039062 19.097656 70.152344 19.054688 70.273438 19.011719 C 72.242188 18.351562 74.046875 18.332031 75.976562 19.140625 C 76.527344 19.429688 77.035156 19.753906 77.539062 20.117188 C 77.703125 20.234375 77.871094 20.351562 78.039062 20.472656 C 78.4375 20.828125 78.765625 21.179688 79.109375 21.585938 C 79.960938 22.5625 80.867188 23.472656 81.785156 24.386719 C 81.972656 24.574219 82.160156 24.761719 82.347656 24.949219 C 82.855469 25.457031 83.359375 25.960938 83.867188 26.464844 C 84.398438 26.996094 84.929688 27.527344 85.460938 28.054688 C 86.464844 29.058594 87.46875 30.0625 88.472656 31.066406 C 89.613281 32.207031 90.757812 33.34375 91.898438 34.484375 C 94.148438 36.734375 96.402344 38.984375 98.65625 41.234375 C 98.777344 41.355469 98.898438 41.476562 99.023438 41.601562 C 99.1875 41.75 99.1875 41.75 99.355469 41.90625 C 99.785156 42.382812 99.777344 42.992188 99.835938 43.609375 C 99.859375 43.824219 99.859375 43.824219 99.882812 44.046875 C 100.074219 46.003906 100.070312 47.964844 100.0625 49.925781 C 100.0625 50.125 100.058594 50.324219 100.058594 50.527344 C 100.050781 53.382812 100 56.183594 99.414062 58.984375 C 99.355469 59.269531 99.355469 59.269531 99.296875 59.5625 C 97.320312 69.011719 93.039062 77.601562 86.328125 84.570312 C 86.203125 84.699219 86.082031 84.828125 85.953125 84.960938 C 84.167969 86.8125 82.351562 88.519531 80.273438 90.039062 C 80.046875 90.207031 79.824219 90.375 79.597656 90.542969 C 78 91.722656 76.339844 92.773438 74.609375 93.75 C 74.472656 93.828125 74.332031 93.90625 74.191406 93.988281 C 69.671875 96.53125 64.757812 98.242188 59.679688 99.28125 C 59.539062 99.308594 59.398438 99.335938 59.253906 99.367188 C 56.328125 99.921875 53.433594 100.066406 50.457031 100.0625 C 49.847656 100.0625 49.234375 100.066406 48.625 100.070312 C 48.234375 100.070312 47.84375 100.070312 47.453125 100.070312 C 47.269531 100.074219 47.089844 100.074219 46.902344 100.078125 C 46.648438 100.074219 46.648438 100.074219 46.390625 100.074219 C 46.242188 100.074219 46.097656 100.074219 45.945312 100.074219 C 44.945312 99.90625 44.265625 99.199219 43.574219 98.503906 C 43.484375 98.414062 43.394531 98.324219 43.300781 98.230469 C 42.996094 97.929688 42.695312 97.625 42.394531 97.320312 C 42.175781 97.105469 41.960938 96.886719 41.742188 96.667969 C 41.152344 96.078125 40.5625 95.488281 39.976562 94.898438 C 39.359375 94.28125 38.742188 93.664062 38.128906 93.046875 C 36.960938 91.878906 35.796875 90.710938 34.632812 89.542969 C 33.304688 88.210938 31.976562 86.882812 30.648438 85.550781 C 27.917969 82.816406 25.1875 80.082031 22.460938 77.34375 C 23.023438 77.195312 23.480469 77.136719 24.0625 77.164062 C 29.0625 77.203125 34.785156 73.242188 38.867188 70.703125 C 39.023438 70.605469 39.179688 70.511719 39.339844 70.410156 C 42.859375 68.25 46.269531 65.910156 49.609375 63.476562 C 49.746094 63.375 49.886719 63.277344 50.027344 63.171875 C 53.230469 60.839844 56.378906 58.453125 59.375 55.859375 C 59.519531 55.734375 59.667969 55.613281 59.816406 55.484375 C 60.195312 55.160156 60.566406 54.828125 60.9375 54.492188 C 61.085938 54.359375 61.230469 54.230469 61.382812 54.09375 C 62.785156 52.773438 63.945312 51.210938 64.109375 49.242188 C 64.144531 47.746094 63.984375 46.636719 63.28125 45.3125 C 63.152344 45.066406 63.152344 45.066406 63.019531 44.816406 C 62.089844 43.214844 60.824219 41.917969 59.535156 40.597656 C 59.195312 40.253906 58.863281 39.902344 58.527344 39.550781 C 56.871094 37.835938 55.113281 36.175781 52.929688 35.15625 C 53.023438 34.3125 53.523438 33.917969 54.113281 33.351562 C 54.382812 33.089844 54.382812 33.089844 54.65625 32.820312 C 54.796875 32.691406 54.933594 32.558594 55.078125 32.421875 C 54.984375 32.136719 54.890625 31.851562 54.796875 31.566406 C 54.746094 31.410156 54.691406 31.25 54.640625 31.085938 C 54.5 30.660156 54.5 30.660156 54.296875 30.273438 C 54.121094 28.597656 54.386719 27.320312 55.378906 25.953125 C 55.65625 25.613281 55.921875 25.292969 56.25 25 C 56.378906 25 56.507812 25 56.640625 25 C 56.578125 24.855469 56.511719 24.710938 56.445312 24.5625 C 55.957031 22.730469 56.175781 21.015625 57.03125 19.335938 C 58.144531 17.535156 59.703125 16.210938 61.730469 15.558594 C 63.800781 15.09375 65.882812 15.394531 67.691406 16.527344 Z M 67.691406 16.527344 "/>
<path style=" stroke:none;fill-rule:nonzero;fill:rgb(99.607843%,80.392158%,0.392157%);fill-opacity:1;" d="M 53.320312 35.15625 C 53.566406 35.285156 53.566406 35.285156 53.816406 35.417969 C 55.414062 36.347656 56.707031 37.609375 58.023438 38.894531 C 58.390625 39.25 58.757812 39.601562 59.125 39.953125 C 61.515625 42.265625 64.238281 44.945312 64.320312 48.460938 C 64.289062 51.253906 62.679688 53.007812 60.800781 54.882812 C 59.824219 55.835938 58.777344 56.675781 57.691406 57.5 C 57.082031 57.960938 56.5 58.449219 55.921875 58.949219 C 54.480469 60.15625 52.960938 61.253906 51.4375 62.359375 C 51.023438 62.660156 50.613281 62.964844 50.203125 63.269531 C 45.832031 66.503906 41.25 69.574219 36.523438 72.265625 C 36.308594 72.390625 36.308594 72.390625 36.089844 72.515625 C 33.125 74.230469 30.089844 75.871094 26.804688 76.878906 C 26.652344 76.929688 26.496094 76.976562 26.335938 77.027344 C 25.070312 77.386719 23.757812 77.570312 22.484375 77.136719 C 21.867188 76.753906 21.605469 76.484375 21.375 75.792969 C 20.183594 70.253906 25.941406 62.515625 28.710938 58.203125 C 30.726562 55.097656 32.785156 52.019531 34.960938 49.023438 C 35.070312 48.875 35.175781 48.726562 35.289062 48.570312 C 36.765625 46.539062 38.277344 44.542969 39.84375 42.578125 C 39.976562 42.410156 40.105469 42.246094 40.242188 42.074219 C 47.957031 32.296875 47.957031 32.296875 53.320312 35.15625 Z M 53.320312 35.15625 "/>
<path style=" stroke:none;fill-rule:nonzero;fill:rgb(0%,78.039217%,78.431374%);fill-opacity:1;" d="M 67.691406 16.527344 C 68.558594 17.171875 69.289062 17.871094 69.921875 18.75 C 69.921875 18.878906 69.921875 19.007812 69.921875 19.140625 C 70.039062 19.097656 70.152344 19.054688 70.273438 19.011719 C 72.242188 18.351562 74.046875 18.332031 75.976562 19.140625 C 76.527344 19.429688 77.03125 19.757812 77.539062 20.117188 C 77.707031 20.226562 77.878906 20.335938 78.050781 20.445312 C 79.378906 21.738281 80.074219 23.398438 80.140625 25.230469 C 80.121094 26.441406 79.832031 27.554688 79.492188 28.710938 C 79.664062 28.792969 79.664062 28.792969 79.839844 28.875 C 81.398438 29.691406 82.332031 31.039062 82.972656 32.640625 C 83.558594 34.597656 83.367188 36.675781 82.421875 38.476562 C 82.015625 39.113281 81.566406 39.675781 81.054688 40.234375 C 80.953125 40.34375 80.855469 40.457031 80.75 40.570312 C 79.554688 41.738281 77.917969 42.414062 76.25 42.402344 C 75.785156 42.390625 75.320312 42.371094 74.855469 42.351562 C 74.015625 42.332031 73.472656 42.328125 72.851562 42.921875 C 72.757812 43.027344 72.664062 43.132812 72.570312 43.242188 C 71.75 44.089844 70.46875 44.378906 69.324219 44.433594 C 68.429688 44.402344 67.765625 44.125 66.992188 43.6875 C 66.605469 43.511719 66.605469 43.511719 66.21875 43.671875 C 65.726562 44.011719 65.332031 44.394531 64.917969 44.824219 C 64.691406 45.058594 64.691406 45.058594 64.457031 45.292969 C 64.328125 45.429688 64.195312 45.5625 64.0625 45.703125 C 63.933594 45.832031 63.804688 45.960938 63.671875 46.09375 C 63.613281 45.96875 63.558594 45.847656 63.496094 45.71875 C 61.449219 41.632812 57.066406 37.109375 52.929688 35.15625 C 53.023438 34.3125 53.523438 33.917969 54.113281 33.351562 C 54.292969 33.175781 54.472656 33 54.65625 32.820312 C 54.796875 32.691406 54.933594 32.558594 55.078125 32.421875 C 54.984375 32.136719 54.890625 31.851562 54.796875 31.566406 C 54.746094 31.410156 54.691406 31.25 54.640625 31.085938 C 54.5 30.660156 54.5 30.660156 54.296875 30.273438 C 54.121094 28.597656 54.386719 27.320312 55.378906 25.953125 C 55.65625 25.613281 55.921875 25.292969 56.25 25 C 56.378906 25 56.507812 25 56.640625 25 C 56.578125 24.855469 56.511719 24.710938 56.445312 24.5625 C 55.957031 22.730469 56.175781 21.015625 57.03125 19.335938 C 58.144531 17.535156 59.703125 16.210938 61.730469 15.558594 C 63.800781 15.09375 65.882812 15.394531 67.691406 16.527344 Z M 67.691406 16.527344 "/>
<path style=" stroke:none;fill-rule:nonzero;fill:rgb(98.823529%,72.549021%,7.058824%);fill-opacity:1;" d="M 58.789062 39.84375 C 59.007812 40.027344 59.222656 40.214844 59.441406 40.398438 C 59.5625 40.5 59.683594 40.605469 59.808594 40.710938 C 61.890625 42.535156 64.035156 45.027344 64.316406 47.871094 C 64.410156 50.230469 63.617188 51.890625 62.046875 53.601562 C 60.699219 55.039062 59.261719 56.304688 57.691406 57.5 C 57.082031 57.960938 56.5 58.449219 55.921875 58.949219 C 54.480469 60.15625 52.960938 61.253906 51.4375 62.359375 C 51.023438 62.660156 50.613281 62.964844 50.203125 63.269531 C 45.832031 66.503906 41.25 69.574219 36.523438 72.265625 C 36.308594 72.390625 36.308594 72.390625 36.089844 72.515625 C 33.125 74.230469 30.089844 75.871094 26.804688 76.878906 C 26.652344 76.929688 26.496094 76.976562 26.335938 77.027344 C 24.714844 77.488281 23.390625 77.53125 21.875 76.757812 C 32.734375 65.898438 43.589844 55.042969 58.789062 39.84375 Z M 58.789062 39.84375 "/>
<path style=" stroke:none;fill-rule:nonzero;fill:rgb(0%,62.352943%,66.666669%);fill-opacity:1;" d="M 77.929688 20.703125 C 78.910156 21.03125 79.226562 21.96875 79.6875 22.851562 C 80.472656 24.8125 80.066406 26.75 79.492188 28.710938 C 79.605469 28.765625 79.722656 28.820312 79.839844 28.875 C 81.398438 29.691406 82.332031 31.039062 82.972656 32.640625 C 83.558594 34.597656 83.367188 36.675781 82.421875 38.476562 C 82.015625 39.113281 81.566406 39.675781 81.054688 40.234375 C 80.953125 40.34375 80.855469 40.457031 80.75 40.570312 C 79.554688 41.738281 77.917969 42.414062 76.25 42.402344 C 75.785156 42.390625 75.320312 42.371094 74.855469 42.351562 C 74.015625 42.332031 73.472656 42.328125 72.851562 42.921875 C 72.757812 43.027344 72.664062 43.132812 72.570312 43.242188 C 71.75 44.089844 70.46875 44.378906 69.324219 44.433594 C 68.429688 44.402344 67.765625 44.125 66.992188 43.6875 C 66.605469 43.511719 66.605469 43.511719 66.21875 43.671875 C 65.726562 44.011719 65.332031 44.394531 64.917969 44.824219 C 64.765625 44.980469 64.613281 45.132812 64.457031 45.292969 C 64.328125 45.429688 64.195312 45.5625 64.0625 45.703125 C 63.867188 45.898438 63.867188 45.898438 63.671875 46.09375 C 63.613281 45.96875 63.558594 45.847656 63.496094 45.71875 C 62.390625 43.515625 60.730469 41.757812 58.984375 40.039062 C 59.269531 39.386719 59.625 38.960938 60.125 38.460938 C 60.28125 38.300781 60.441406 38.144531 60.601562 37.984375 C 60.773438 37.8125 60.945312 37.640625 61.121094 37.464844 C 61.304688 37.285156 61.484375 37.105469 61.671875 36.917969 C 62.167969 36.421875 62.664062 35.925781 63.160156 35.433594 C 63.679688 34.914062 64.199219 34.394531 64.71875 33.878906 C 65.699219 32.898438 66.683594 31.917969 67.667969 30.9375 C 68.785156 29.820312 69.90625 28.707031 71.023438 27.589844 C 73.324219 25.292969 75.625 22.996094 77.929688 20.703125 Z M 77.929688 20.703125 "/>
<path style=" stroke:none;fill-rule:nonzero;fill:rgb(38.431373%,87.843138%,85.882354%);fill-opacity:1;" d="M 76.855469 19.617188 C 77.492188 20.011719 77.5625 20.167969 77.929688 20.898438 C 71.679688 27.148438 65.425781 33.402344 58.984375 39.84375 C 58.074219 39.0625 57.160156 38.28125 56.25 37.5 C 57.054688 36.542969 57.886719 35.640625 58.773438 34.761719 C 58.960938 34.574219 58.960938 34.574219 59.152344 34.386719 C 59.542969 33.996094 59.933594 33.605469 60.328125 33.214844 C 60.59375 32.949219 60.863281 32.683594 61.128906 32.414062 C 61.78125 31.765625 62.433594 31.117188 63.085938 30.46875 C 63.023438 30.285156 62.960938 30.101562 62.894531 29.914062 C 62.527344 28.777344 62.503906 27.628906 62.988281 26.527344 C 63.492188 25.644531 64.203125 24.980469 65.039062 24.414062 C 65.25 24.363281 65.457031 24.308594 65.671875 24.253906 C 66.234375 24.082031 66.234375 24.082031 66.414062 23.621094 C 66.542969 23.28125 66.667969 22.9375 66.789062 22.589844 C 67.421875 20.972656 68.691406 19.84375 70.230469 19.089844 C 72.507812 18.160156 74.734375 18.378906 76.855469 19.617188 Z M 76.855469 19.617188 "/>
<path style=" stroke:none;fill-rule:nonzero;fill:rgb(10.588235%,67.450982%,70.588237%);fill-opacity:1;" d="M 77.929688 20.703125 C 78.910156 21.03125 79.226562 21.96875 79.6875 22.851562 C 80.492188 24.867188 80.132812 26.957031 79.296875 28.90625 C 78.390625 30.476562 77.058594 31.59375 75.316406 32.105469 C 74.613281 32.332031 74.613281 32.332031 74.429688 32.757812 C 74.34375 33.027344 74.261719 33.296875 74.183594 33.570312 C 73.839844 34.464844 73.101562 35.097656 72.28125 35.566406 C 70.84375 36.179688 69.621094 36.03125 68.164062 35.546875 C 65.90625 37.804688 63.652344 40.058594 61.328125 42.382812 C 60.546875 41.601562 59.765625 40.820312 58.984375 40.039062 C 59.269531 39.386719 59.625 38.960938 60.125 38.460938 C 60.28125 38.300781 60.441406 38.144531 60.601562 37.984375 C 60.773438 37.8125 60.945312 37.640625 61.121094 37.464844 C 61.304688 37.285156 61.484375 37.105469 61.671875 36.917969 C 62.167969 36.421875 62.664062 35.925781 63.160156 35.433594 C 63.679688 34.914062 64.199219 34.394531 64.71875 33.878906 C 65.699219 32.898438 66.683594 31.917969 67.667969 30.9375 C 68.785156 29.820312 69.90625 28.707031 71.023438 27.589844 C 73.324219 25.292969 75.625 22.996094 77.929688 20.703125 Z M 77.929688 20.703125 "/>
<path style=" stroke:none;fill-rule:nonzero;fill:rgb(99.607843%,63.529414%,0%);fill-opacity:1;" d="M 46.09375 53.515625 C 46.699219 53.785156 47.109375 54.09375 47.574219 54.558594 C 47.707031 54.691406 47.839844 54.824219 47.976562 54.964844 C 48.117188 55.105469 48.257812 55.25 48.402344 55.398438 C 48.550781 55.542969 48.695312 55.691406 48.847656 55.84375 C 49.3125 56.3125 49.777344 56.78125 50.242188 57.25 C 50.558594 57.570312 50.875 57.886719 51.191406 58.207031 C 51.96875 58.984375 52.742188 59.765625 53.515625 60.546875 C 52.917969 61.160156 52.324219 61.714844 51.632812 62.21875 C 51.46875 62.335938 51.304688 62.457031 51.132812 62.582031 C 50.964844 62.703125 50.796875 62.824219 50.621094 62.953125 C 50.449219 63.078125 50.277344 63.203125 50.097656 63.332031 C 49.675781 63.640625 49.253906 63.949219 48.828125 64.257812 C 46.613281 62.042969 44.402344 59.832031 42.1875 57.617188 C 42.796875 56.898438 43.402344 56.183594 44.070312 55.519531 C 44.191406 55.398438 44.3125 55.28125 44.433594 55.15625 C 44.554688 55.039062 44.675781 54.921875 44.800781 54.796875 C 44.925781 54.671875 45.050781 54.550781 45.179688 54.421875 C 45.484375 54.117188 45.789062 53.816406 46.09375 53.515625 Z M 46.09375 53.515625 "/>
<path style=" stroke:none;fill-rule:nonzero;fill:rgb(98.823529%,72.941178%,7.058824%);fill-opacity:1;" d="M 44.921875 37.109375 C 45.175781 37.367188 45.175781 37.367188 45.484375 37.742188 C 46.464844 38.898438 47.546875 39.949219 48.621094 41.015625 C 48.832031 41.226562 49.042969 41.433594 49.25 41.644531 C 49.761719 42.152344 50.269531 42.65625 50.78125 43.164062 C 49.980469 44.851562 48.394531 46.171875 47.070312 47.460938 C 46.25 47.140625 45.707031 46.535156 45.101562 45.921875 C 44.992188 45.808594 44.878906 45.695312 44.765625 45.582031 C 44.410156 45.222656 44.054688 44.867188 43.703125 44.507812 C 43.460938 44.265625 43.21875 44.019531 42.976562 43.777344 C 42.386719 43.183594 41.800781 42.589844 41.210938 41.992188 C 40.890625 42.121094 40.566406 42.25 40.234375 42.382812 C 40.949219 40.777344 42.371094 39.441406 43.542969 38.148438 C 43.632812 38.042969 43.726562 37.941406 43.820312 37.832031 C 44.484375 37.109375 44.484375 37.109375 44.921875 37.109375 Z M 44.921875 37.109375 "/>
<path style=" stroke:none;fill-rule:nonzero;fill:rgb(99.215686%,63.529414%,0.392157%);fill-opacity:1;" d="M 37.5 64.648438 C 38.480469 65.46875 39.398438 66.328125 40.296875 67.234375 C 40.417969 67.359375 40.539062 67.480469 40.660156 67.605469 C 40.882812 67.828125 41.105469 68.054688 41.328125 68.277344 C 41.546875 68.5 41.769531 68.722656 41.992188 68.945312 C 40.316406 69.976562 38.640625 71.007812 36.914062 72.070312 C 36.0625 71.339844 35.265625 70.640625 34.484375 69.847656 C 34.316406 69.679688 34.148438 69.507812 33.972656 69.332031 C 33.847656 69.203125 33.722656 69.078125 33.59375 68.945312 C 33.882812 68.269531 34.269531 67.832031 34.792969 67.320312 C 35.027344 67.085938 35.027344 67.085938 35.269531 66.84375 C 35.433594 66.683594 35.597656 66.523438 35.765625 66.359375 C 35.933594 66.191406 36.097656 66.027344 36.269531 65.859375 C 36.679688 65.457031 37.089844 65.050781 37.5 64.648438 Z M 37.5 64.648438 "/>
</g>
</svg>
