<?xml version="1.0" encoding="UTF-8"?>
<svg xmlns="http://www.w3.org/2000/svg" xmlns:xlink="http://www.w3.org/1999/xlink" width="100px" height="100px" viewBox="0 0 100 100" version="1.1">
<g id="surface1">
<path style=" stroke:none;fill-rule:nonzero;fill:rgb(41.960785%,59.607846%,98.039216%);fill-opacity:1;" d="M 49.925781 -0.0625 C 50.125 -0.0625 50.324219 -0.0585938 50.527344 -0.0585938 C 53.382812 -0.0507812 56.183594 0 58.984375 0.585938 C 59.175781 0.625 59.363281 0.664062 59.5625 0.703125 C 69.011719 2.679688 77.601562 6.960938 84.570312 13.671875 C 84.761719 13.855469 84.761719 13.855469 84.960938 14.046875 C 86.8125 15.832031 88.519531 17.648438 90.039062 19.726562 C 90.207031 19.953125 90.375 20.175781 90.542969 20.402344 C 91.722656 22 92.769531 23.664062 93.75 25.390625 C 93.820312 25.515625 93.890625 25.636719 93.964844 25.765625 C 98.1875 33.136719 100.09375 41.488281 100.0625 49.925781 C 100.0625 50.125 100.058594 50.324219 100.058594 50.527344 C 100.050781 53.382812 100 56.183594 99.414062 58.984375 C 99.355469 59.269531 99.355469 59.269531 99.296875 59.5625 C 97.320312 69.011719 93.039062 77.601562 86.328125 84.570312 C 86.203125 84.699219 86.082031 84.828125 85.953125 84.960938 C 84.167969 86.8125 82.351562 88.519531 80.273438 90.039062 C 80.046875 90.207031 79.824219 90.375 79.597656 90.542969 C 78 91.722656 76.339844 92.773438 74.609375 93.75 C 74.472656 93.828125 74.332031 93.90625 74.191406 93.988281 C 69.671875 96.53125 64.757812 98.242188 59.679688 99.28125 C 59.539062 99.308594 59.398438 99.335938 59.253906 99.367188 C 56.386719 99.910156 53.550781 100.066406 50.640625 100.0625 C 50.066406 100.0625 49.492188 100.066406 48.917969 100.070312 C 46.304688 100.078125 43.785156 99.84375 41.210938 99.414062 C 40.878906 99.359375 40.878906 99.359375 40.539062 99.300781 C 32.085938 97.785156 24.070312 93.882812 17.578125 88.28125 C 17.433594 88.15625 17.285156 88.035156 17.136719 87.90625 C 14.5 85.597656 12.023438 83.109375 9.960938 80.273438 C 9.792969 80.050781 9.625 79.824219 9.457031 79.601562 C 8.277344 78 7.226562 76.339844 6.25 74.609375 C 6.171875 74.472656 6.09375 74.332031 6.011719 74.191406 C 3.46875 69.671875 1.757812 64.757812 0.71875 59.679688 C 0.691406 59.539062 0.664062 59.398438 0.632812 59.253906 C 0.0507812 56.199219 -0.0742188 53.175781 -0.0625 50.074219 C -0.0625 49.875 -0.0585938 49.675781 -0.0585938 49.472656 C -0.0507812 46.617188 0 43.816406 0.585938 41.015625 C 0.625 40.824219 0.664062 40.636719 0.703125 40.4375 C 2.679688 30.988281 6.960938 22.398438 13.671875 15.429688 C 13.796875 15.300781 13.917969 15.171875 14.046875 15.039062 C 15.832031 13.1875 17.648438 11.480469 19.726562 9.960938 C 19.953125 9.792969 20.175781 9.625 20.402344 9.457031 C 22 8.277344 23.660156 7.226562 25.390625 6.25 C 25.527344 6.171875 25.667969 6.09375 25.808594 6.011719 C 30.328125 3.46875 35.242188 1.757812 40.320312 0.71875 C 40.460938 0.691406 40.601562 0.664062 40.746094 0.632812 C 43.800781 0.0507812 46.824219 -0.0742188 49.925781 -0.0625 Z M 49.925781 -0.0625 "/>
<path style=" stroke:none;fill-rule:nonzero;fill:rgb(41.568628%,74.509805%,28.235295%);fill-opacity:1;" d="M 57.617188 9.570312 C 59.484375 9.570312 61.355469 9.570312 63.28125 9.570312 C 63.28125 16.53125 63.28125 23.492188 63.28125 30.664062 C 66.632812 30.664062 69.984375 30.664062 73.4375 30.664062 C 76.179688 33.617188 76.179688 33.617188 77.003906 34.574219 C 77.4375 35.066406 77.878906 35.550781 78.320312 36.035156 C 78.996094 36.777344 79.664062 37.519531 80.316406 38.28125 C 80.566406 38.5625 80.828125 38.835938 81.097656 39.097656 C 84.757812 42.808594 85.222656 49.609375 85.203125 54.585938 C 85.175781 56.269531 85.023438 57.90625 84.765625 59.570312 C 84.734375 59.804688 84.703125 60.042969 84.671875 60.285156 C 83.34375 68.828125 78.203125 77.1875 71.230469 82.304688 C 68.78125 84.050781 66.25 85.550781 63.476562 86.71875 C 63.289062 86.800781 63.289062 86.800781 63.097656 86.882812 C 58.210938 88.957031 53.097656 89.375 47.851562 89.257812 C 47.710938 89.253906 47.574219 89.253906 47.429688 89.25 C 42.585938 89.125 37.59375 87.53125 33.398438 85.15625 C 33.210938 85.050781 33.210938 85.050781 33.019531 84.945312 C 30.234375 83.371094 27.777344 81.421875 25.390625 79.296875 C 25.191406 79.121094 25.191406 79.121094 24.988281 78.941406 C 21.324219 75.46875 18.699219 70.730469 16.957031 66.050781 C 16.824219 65.699219 16.691406 65.355469 16.554688 65.007812 C 15.839844 63.078125 15.546875 61.007812 15.234375 58.984375 C 15.214844 58.847656 15.191406 58.714844 15.171875 58.574219 C 14.359375 52.472656 15.3125 46.3125 17.578125 40.625 C 17.707031 40.625 17.835938 40.625 17.96875 40.625 C 18.019531 40.507812 18.074219 40.394531 18.128906 40.277344 C 18.363281 39.839844 18.605469 39.539062 18.949219 39.179688 C 19.121094 39 19.121094 39 19.296875 38.8125 C 19.417969 38.6875 19.539062 38.558594 19.664062 38.429688 C 19.914062 38.164062 20.167969 37.898438 20.417969 37.632812 C 20.535156 37.507812 20.652344 37.382812 20.777344 37.253906 C 21.238281 36.761719 21.675781 36.253906 22.117188 35.746094 C 22.578125 35.214844 23.058594 34.699219 23.535156 34.179688 C 24.992188 32.699219 24.992188 32.699219 26.210938 31.039062 C 26.5625 30.664062 26.5625 30.664062 27.121094 30.566406 C 27.347656 30.570312 27.578125 30.570312 27.8125 30.570312 C 27.9375 30.570312 28.066406 30.570312 28.199219 30.566406 C 28.625 30.566406 29.050781 30.570312 29.480469 30.574219 C 29.785156 30.574219 30.09375 30.574219 30.398438 30.574219 C 31.230469 30.574219 32.0625 30.578125 32.894531 30.585938 C 33.761719 30.589844 34.628906 30.589844 35.5 30.589844 C 37.144531 30.59375 38.789062 30.601562 40.4375 30.609375 C 42.660156 30.617188 44.882812 30.621094 47.105469 30.625 C 50.609375 30.632812 54.113281 30.648438 57.617188 30.664062 C 57.617188 23.703125 57.617188 16.742188 57.617188 9.570312 Z M 57.617188 9.570312 "/>
<path style=" stroke:none;fill-rule:nonzero;fill:rgb(30.588236%,36.470589%,79.607844%);fill-opacity:1;" d="M 63.28125 9.570312 C 64.074219 9.96875 64.59375 10.433594 65.207031 11.054688 C 65.367188 11.214844 65.367188 11.214844 65.53125 11.378906 C 65.757812 11.601562 65.984375 11.828125 66.207031 12.054688 C 66.554688 12.402344 66.898438 12.746094 67.246094 13.09375 C 67.46875 13.3125 67.6875 13.53125 67.90625 13.75 C 68.007812 13.855469 68.113281 13.957031 68.222656 14.066406 C 68.945312 14.800781 68.945312 14.800781 68.945312 15.234375 C 69.050781 15.277344 69.160156 15.320312 69.269531 15.367188 C 69.863281 15.703125 70.308594 16.152344 70.785156 16.632812 C 70.882812 16.730469 70.984375 16.828125 71.085938 16.929688 C 71.292969 17.136719 71.5 17.34375 71.703125 17.550781 C 72.023438 17.871094 72.339844 18.1875 72.660156 18.503906 C 72.863281 18.707031 73.0625 18.910156 73.261719 19.109375 C 73.40625 19.253906 73.40625 19.253906 73.554688 19.398438 C 74.21875 20.074219 74.21875 20.074219 74.21875 20.507812 C 74.328125 20.554688 74.4375 20.601562 74.550781 20.648438 C 75.105469 20.957031 75.484375 21.332031 75.929688 21.777344 C 76.066406 21.914062 76.066406 21.914062 76.203125 22.050781 C 76.496094 22.34375 76.792969 22.636719 77.085938 22.929688 C 77.289062 23.136719 77.492188 23.339844 77.699219 23.542969 C 78.125 23.972656 78.554688 24.398438 78.980469 24.828125 C 79.527344 25.378906 80.078125 25.925781 80.628906 26.476562 C 81.050781 26.898438 81.472656 27.320312 81.894531 27.742188 C 82.097656 27.945312 82.300781 28.148438 82.503906 28.347656 C 82.785156 28.628906 83.066406 28.914062 83.347656 29.199219 C 83.511719 29.359375 83.671875 29.519531 83.835938 29.683594 C 84.179688 30.078125 84.179688 30.078125 84.179688 30.46875 C 84.292969 30.523438 84.410156 30.574219 84.527344 30.628906 C 84.957031 30.855469 85.265625 31.097656 85.625 31.417969 C 85.753906 31.535156 85.882812 31.648438 86.011719 31.765625 C 86.148438 31.894531 86.289062 32.019531 86.429688 32.148438 C 86.648438 32.347656 86.648438 32.347656 86.875 32.550781 C 88.238281 33.789062 89.574219 35.054688 90.90625 36.328125 C 91.800781 37.179688 92.699219 38.023438 93.617188 38.847656 C 100.273438 44.824219 100.273438 44.824219 100.507812 48.816406 C 100.542969 50.585938 100.347656 52.324219 100.066406 54.066406 C 99.945312 54.863281 99.890625 55.664062 99.828125 56.46875 C 99.746094 57.320312 99.585938 58.148438 99.414062 58.984375 C 99.355469 59.269531 99.355469 59.269531 99.296875 59.5625 C 97.320312 69.011719 93.039062 77.601562 86.328125 84.570312 C 86.203125 84.699219 86.082031 84.828125 85.953125 84.960938 C 84.167969 86.8125 82.351562 88.519531 80.273438 90.039062 C 80.046875 90.207031 79.824219 90.375 79.597656 90.542969 C 78 91.722656 76.339844 92.773438 74.609375 93.75 C 74.472656 93.828125 74.332031 93.90625 74.191406 93.988281 C 69.671875 96.53125 64.757812 98.242188 59.679688 99.28125 C 59.539062 99.308594 59.398438 99.335938 59.253906 99.367188 C 58.140625 99.578125 57.015625 99.703125 55.886719 99.824219 C 55.113281 99.914062 54.355469 100.019531 53.589844 100.179688 C 50.925781 100.722656 47.949219 101.0625 45.496094 99.65625 C 42.394531 97.519531 39.839844 94.589844 37.3125 91.824219 C 36.28125 90.695312 35.222656 89.59375 34.164062 88.492188 C 31.992188 86.234375 29.851562 83.949219 27.734375 81.640625 C 28.519531 81.640625 28.894531 82.027344 29.492188 82.484375 C 34.015625 85.800781 39.496094 88.257812 45.117188 88.867188 C 45.402344 88.898438 45.402344 88.898438 45.695312 88.933594 C 55.53125 89.824219 64.792969 87.308594 72.460938 81.054688 C 73.128906 80.484375 73.777344 79.898438 74.414062 79.296875 C 74.644531 79.085938 74.644531 79.085938 74.878906 78.871094 C 80.796875 73.238281 84.734375 64.402344 84.960938 56.25 C 84.964844 56.09375 84.972656 55.941406 84.976562 55.78125 C 85.097656 51.582031 84.53125 47.601562 83.398438 43.554688 C 83.363281 43.417969 83.324219 43.28125 83.285156 43.140625 C 82.644531 40.867188 81.304688 39.488281 79.664062 37.871094 C 79.054688 37.253906 78.496094 36.59375 77.929688 35.9375 C 77.644531 35.621094 77.359375 35.300781 77.074219 34.984375 C 76.925781 34.820312 76.78125 34.65625 76.628906 34.488281 C 76.320312 34.148438 76.011719 33.808594 75.703125 33.46875 C 75.550781 33.300781 75.398438 33.132812 75.242188 32.960938 C 75.109375 32.808594 74.972656 32.660156 74.832031 32.503906 C 74.355469 31.964844 73.898438 31.410156 73.4375 30.859375 C 70.085938 30.792969 66.734375 30.730469 63.28125 30.664062 C 63.28125 23.703125 63.28125 16.742188 63.28125 9.570312 Z M 63.28125 9.570312 "/>
<path style=" stroke:none;fill-rule:nonzero;fill:rgb(60.000002%,85.09804%,38.82353%);fill-opacity:1;" d="M 17.578125 40.625 C 17.679688 40.753906 17.78125 40.882812 17.882812 41.015625 C 18.480469 41.75 19.09375 42.460938 19.726562 43.164062 C 19.824219 43.28125 19.921875 43.394531 20.023438 43.511719 C 21.941406 45.636719 25.277344 47.128906 28.121094 47.285156 C 30.808594 47.382812 33.273438 47.214844 35.738281 46.066406 C 36.613281 45.671875 36.613281 45.671875 37.15625 45.828125 C 37.503906 46.097656 37.785156 46.375 38.074219 46.703125 C 41.179688 49.890625 45.789062 50.839844 50 51.367188 C 50 63.871094 50 76.375 50 89.257812 C 44.152344 89.257812 38.527344 88.058594 33.398438 85.15625 C 33.273438 85.085938 33.148438 85.015625 33.019531 84.945312 C 30.234375 83.371094 27.777344 81.421875 25.390625 79.296875 C 25.257812 79.179688 25.125 79.0625 24.988281 78.941406 C 21.324219 75.46875 18.699219 70.730469 16.957031 66.050781 C 16.824219 65.699219 16.691406 65.355469 16.554688 65.007812 C 15.839844 63.078125 15.546875 61.007812 15.234375 58.984375 C 15.214844 58.847656 15.191406 58.714844 15.171875 58.574219 C 14.359375 52.472656 15.3125 46.3125 17.578125 40.625 Z M 17.578125 40.625 "/>
<path style=" stroke:none;fill-rule:nonzero;fill:rgb(98.823529%,82.745099%,21.568628%);fill-opacity:1;" d="M 57.617188 9.570312 C 59.484375 9.570312 61.355469 9.570312 63.28125 9.570312 C 63.28125 16.53125 63.28125 23.492188 63.28125 30.664062 C 66.632812 30.664062 69.984375 30.664062 73.4375 30.664062 C 76.179688 33.617188 76.179688 33.617188 77.003906 34.574219 C 77.4375 35.066406 77.878906 35.550781 78.320312 36.035156 C 78.992188 36.773438 79.65625 37.515625 80.3125 38.269531 C 81.007812 39.0625 81.714844 39.84375 82.421875 40.625 C 81.128906 43.390625 78.425781 45.53125 75.609375 46.582031 C 71.695312 47.957031 67.554688 47.84375 63.757812 46.140625 C 63.46875 46 63.175781 45.855469 62.890625 45.703125 C 62.84375 45.816406 62.800781 45.925781 62.753906 46.042969 C 61.457031 48.304688 57.675781 50.027344 55.277344 50.691406 C 51.976562 51.558594 48.816406 51.699219 45.507812 50.78125 C 45.300781 50.730469 45.09375 50.675781 44.878906 50.625 C 41.855469 49.796875 39.261719 48.160156 37.109375 45.898438 C 36.753906 46.019531 36.753906 46.019531 36.390625 46.140625 C 36.042969 46.257812 35.699219 46.371094 35.351562 46.484375 C 35.042969 46.585938 35.042969 46.585938 34.722656 46.691406 C 34.402344 46.792969 34.402344 46.792969 34.070312 46.898438 C 33.867188 46.964844 33.667969 47.03125 33.457031 47.097656 C 29.679688 48.085938 25.695312 47.507812 22.347656 45.550781 C 21.363281 44.9375 20.539062 44.179688 19.726562 43.359375 C 19.527344 43.167969 19.527344 43.167969 19.324219 42.972656 C 18.050781 41.734375 18.050781 41.734375 17.773438 41.210938 C 17.847656 40.394531 18.082031 40.035156 18.675781 39.488281 C 19.335938 38.863281 19.945312 38.214844 20.539062 37.523438 C 21.230469 36.722656 21.945312 35.941406 22.65625 35.15625 C 23.09375 34.667969 23.53125 34.183594 23.96875 33.695312 C 24.277344 33.351562 24.589844 33.007812 24.902344 32.667969 C 25.058594 32.492188 25.214844 32.320312 25.378906 32.140625 C 25.519531 31.984375 25.664062 31.828125 25.8125 31.664062 C 26.199219 31.238281 26.199219 31.238281 26.5625 30.664062 C 27.09375 30.59375 27.09375 30.59375 27.789062 30.59375 C 27.914062 30.59375 28.042969 30.59375 28.171875 30.59375 C 28.601562 30.589844 29.03125 30.59375 29.457031 30.597656 C 29.761719 30.597656 30.070312 30.597656 30.375 30.597656 C 31.207031 30.597656 32.039062 30.601562 32.871094 30.605469 C 33.742188 30.609375 34.613281 30.609375 35.480469 30.609375 C 37.128906 30.609375 38.773438 30.617188 40.421875 30.621094 C 42.648438 30.628906 44.871094 30.632812 47.097656 30.636719 C 50.605469 30.640625 54.109375 30.652344 57.617188 30.664062 C 57.617188 23.703125 57.617188 16.742188 57.617188 9.570312 Z M 57.617188 9.570312 "/>
<path style=" stroke:none;fill-rule:nonzero;fill:rgb(97.647059%,72.549021%,20.784314%);fill-opacity:1;" d="M 57.617188 9.570312 C 59.484375 9.570312 61.355469 9.570312 63.28125 9.570312 C 63.28125 16.53125 63.28125 23.492188 63.28125 30.664062 C 66.632812 30.664062 69.984375 30.664062 73.4375 30.664062 C 76.179688 33.617188 76.179688 33.617188 77.003906 34.574219 C 77.4375 35.066406 77.878906 35.550781 78.320312 36.035156 C 78.992188 36.773438 79.65625 37.515625 80.3125 38.269531 C 81.007812 39.0625 81.714844 39.84375 82.421875 40.625 C 81.128906 43.390625 78.425781 45.53125 75.609375 46.582031 C 71.746094 47.9375 67.699219 47.820312 63.902344 46.265625 C 63.265625 45.890625 62.980469 45.625 62.734375 44.929688 C 62.671875 44.757812 62.605469 44.582031 62.539062 44.402344 C 62.460938 44.1875 62.382812 43.972656 62.304688 43.75 C 62.199219 43.46875 62.09375 43.191406 61.988281 42.910156 C 61.675781 42.089844 61.367188 41.269531 61.058594 40.445312 C 60.867188 39.933594 60.675781 39.421875 60.480469 38.910156 C 59.835938 37.191406 59.199219 35.46875 58.59375 33.730469 C 58.550781 33.609375 58.507812 33.484375 58.464844 33.355469 C 58.425781 33.242188 58.386719 33.125 58.34375 33.007812 C 58.210938 32.640625 58.054688 32.28125 57.898438 31.925781 C 57.523438 30.921875 57.539062 29.964844 57.550781 28.90625 C 57.550781 28.695312 57.550781 28.484375 57.550781 28.269531 C 57.550781 27.582031 57.554688 26.890625 57.558594 26.203125 C 57.5625 25.722656 57.5625 25.242188 57.5625 24.765625 C 57.566406 23.503906 57.570312 22.246094 57.578125 20.988281 C 57.582031 19.703125 57.585938 18.417969 57.589844 17.132812 C 57.59375 14.609375 57.605469 12.089844 57.617188 9.570312 Z M 57.617188 9.570312 "/>
<path style=" stroke:none;fill-rule:nonzero;fill:rgb(98.039216%,63.921571%,16.862746%);fill-opacity:1;" d="M 50 30.664062 C 52.515625 30.664062 55.027344 30.664062 57.617188 30.664062 C 59.1875 34.707031 59.1875 34.707031 59.765625 36.308594 C 59.863281 36.574219 59.863281 36.574219 59.964844 36.851562 C 60.167969 37.410156 60.371094 37.96875 60.570312 38.523438 C 60.773438 39.085938 60.976562 39.644531 61.179688 40.203125 C 61.3125 40.5625 61.441406 40.925781 61.570312 41.285156 C 61.851562 42.066406 62.132812 42.84375 62.441406 43.613281 C 62.515625 43.800781 62.515625 43.800781 62.59375 43.992188 C 62.71875 44.316406 62.851562 44.640625 62.984375 44.964844 C 63.085938 45.507812 63.085938 45.507812 62.84375 46.042969 C 60.695312 48.820312 56.886719 50.367188 53.574219 51.070312 C 52.390625 51.214844 51.191406 51.171875 50 51.171875 C 50 44.40625 50 37.636719 50 30.664062 Z M 50 30.664062 "/>
<path style=" stroke:none;fill-rule:nonzero;fill:rgb(97.647059%,72.941178%,20.784314%);fill-opacity:1;" d="M 42.382812 30.664062 C 44.898438 30.664062 47.410156 30.664062 50 30.664062 C 50 37.429688 50 44.199219 50 51.171875 C 50.644531 51.171875 51.289062 51.171875 51.953125 51.171875 C 51.953125 51.234375 51.953125 51.300781 51.953125 51.367188 C 49.71875 51.429688 47.679688 51.382812 45.507812 50.78125 C 45.300781 50.730469 45.09375 50.675781 44.878906 50.625 C 42.4375 49.957031 40.183594 48.738281 38.28125 47.070312 C 38.097656 46.921875 38.097656 46.921875 37.90625 46.773438 C 37.574219 46.484375 37.574219 46.484375 37.109375 45.898438 C 37.160156 44.726562 37.574219 43.691406 37.988281 42.605469 C 38.058594 42.417969 38.125 42.234375 38.195312 42.042969 C 38.417969 41.449219 38.644531 40.855469 38.867188 40.257812 C 39.09375 39.648438 39.324219 39.039062 39.550781 38.429688 C 39.699219 38.027344 39.851562 37.625 40 37.222656 C 40.816406 35.042969 41.601562 32.855469 42.382812 30.664062 Z M 42.382812 30.664062 "/>
<path style=" stroke:none;fill-rule:nonzero;fill:rgb(41.568628%,74.901962%,27.843139%);fill-opacity:1;" d="M 57.617188 9.570312 C 59.484375 9.570312 61.355469 9.570312 63.28125 9.570312 C 63.28125 16.53125 63.28125 23.492188 63.28125 30.664062 C 61.414062 30.664062 59.542969 30.664062 57.617188 30.664062 C 57.617188 23.703125 57.617188 16.742188 57.617188 9.570312 Z M 57.617188 9.570312 "/>
</g>
</svg>
