<?xml version="1.0" encoding="UTF-8"?>
<svg xmlns="http://www.w3.org/2000/svg" xmlns:xlink="http://www.w3.org/1999/xlink" width="100px" height="100px" viewBox="0 0 100 100" version="1.1">
<g id="surface1">
<path style=" stroke:none;fill-rule:nonzero;fill:rgb(99.607843%,24.705882%,35.686275%);fill-opacity:1;" d="M 49.925781 -0.0625 C 50.125 -0.0625 50.324219 -0.0585938 50.527344 -0.0585938 C 53.382812 -0.0507812 56.183594 0 58.984375 0.585938 C 59.175781 0.625 59.363281 0.664062 59.5625 0.703125 C 69.011719 2.679688 77.601562 6.960938 84.570312 13.671875 C 84.761719 13.855469 84.761719 13.855469 84.960938 14.046875 C 86.8125 15.832031 88.519531 17.648438 90.039062 19.726562 C 90.207031 19.953125 90.375 20.175781 90.542969 20.402344 C 91.722656 22 92.769531 23.664062 93.75 25.390625 C 93.820312 25.515625 93.890625 25.636719 93.964844 25.765625 C 98.1875 33.136719 100.09375 41.488281 100.0625 49.925781 C 100.0625 50.125 100.058594 50.324219 100.058594 50.527344 C 100.050781 53.382812 100 56.183594 99.414062 58.984375 C 99.355469 59.269531 99.355469 59.269531 99.296875 59.5625 C 97.320312 69.011719 93.039062 77.601562 86.328125 84.570312 C 86.203125 84.699219 86.082031 84.828125 85.953125 84.960938 C 84.167969 86.8125 82.351562 88.519531 80.273438 90.039062 C 80.046875 90.207031 79.824219 90.375 79.597656 90.542969 C 78 91.722656 76.339844 92.773438 74.609375 93.75 C 74.472656 93.828125 74.332031 93.90625 74.191406 93.988281 C 69.671875 96.53125 64.757812 98.242188 59.679688 99.28125 C 59.539062 99.308594 59.398438 99.335938 59.253906 99.367188 C 56.386719 99.910156 53.550781 100.066406 50.640625 100.0625 C 50.066406 100.0625 49.492188 100.066406 48.917969 100.070312 C 46.304688 100.078125 43.785156 99.84375 41.210938 99.414062 C 40.878906 99.359375 40.878906 99.359375 40.539062 99.300781 C 32.085938 97.785156 24.070312 93.882812 17.578125 88.28125 C 17.433594 88.15625 17.285156 88.035156 17.136719 87.90625 C 14.5 85.597656 12.023438 83.109375 9.960938 80.273438 C 9.792969 80.050781 9.625 79.824219 9.457031 79.601562 C 8.277344 78 7.226562 76.339844 6.25 74.609375 C 6.171875 74.472656 6.09375 74.332031 6.011719 74.191406 C 3.46875 69.671875 1.757812 64.757812 0.71875 59.679688 C 0.691406 59.539062 0.664062 59.398438 0.632812 59.253906 C 0.0507812 56.199219 -0.0742188 53.175781 -0.0625 50.074219 C -0.0625 49.875 -0.0585938 49.675781 -0.0585938 49.472656 C -0.0507812 46.617188 0 43.816406 0.585938 41.015625 C 0.625 40.824219 0.664062 40.636719 0.703125 40.4375 C 2.679688 30.988281 6.960938 22.398438 13.671875 15.429688 C 13.796875 15.300781 13.917969 15.171875 14.046875 15.039062 C 15.832031 13.1875 17.648438 11.480469 19.726562 9.960938 C 19.953125 9.792969 20.175781 9.625 20.402344 9.457031 C 22 8.277344 23.660156 7.226562 25.390625 6.25 C 25.527344 6.171875 25.667969 6.09375 25.808594 6.011719 C 30.328125 3.46875 35.242188 1.757812 40.320312 0.71875 C 40.460938 0.691406 40.601562 0.664062 40.746094 0.632812 C 43.800781 0.0507812 46.824219 -0.0742188 49.925781 -0.0625 Z M 49.925781 -0.0625 "/>
<path style=" stroke:none;fill-rule:nonzero;fill:rgb(99.607843%,79.607844%,0%);fill-opacity:1;" d="M 64.648438 23.242188 C 65.398438 23.585938 65.8125 24.011719 66.359375 24.632812 C 66.589844 24.902344 66.589844 24.902344 66.832031 25.171875 C 66.949219 25.308594 67.066406 25.445312 67.1875 25.585938 C 66.878906 26.347656 66.378906 26.824219 65.796875 27.390625 C 65.617188 27.566406 65.441406 27.742188 65.257812 27.921875 C 65.050781 28.117188 65.050781 28.117188 64.84375 28.320312 C 65.03125 28.371094 65.21875 28.425781 65.414062 28.476562 C 67.824219 29.167969 70.183594 29.925781 72.070312 31.640625 C 72.210938 31.765625 72.347656 31.890625 72.492188 32.019531 C 74.789062 34.34375 76.011719 37.890625 76.023438 41.113281 C 76.011719 41.472656 76 41.828125 75.976562 42.1875 C 74.761719 42.21875 73.679688 42.132812 72.496094 41.859375 C 72.34375 41.824219 72.191406 41.789062 72.035156 41.75 C 69.078125 41.035156 66.441406 39.640625 64.648438 37.109375 C 63.566406 35.277344 62.398438 33.042969 62.5 30.859375 C 61.921875 31.167969 61.507812 31.488281 61.132812 32.03125 C 61.054688 32.738281 61.085938 33.402344 61.125 34.113281 C 61.132812 34.71875 61.09375 35.019531 60.828125 35.546875 C 60.472656 36.285156 60.503906 36.527344 60.742188 37.304688 C 60.890625 37.632812 61.039062 37.957031 61.195312 38.28125 C 63.542969 43.28125 62.929688 48.75 61.523438 53.90625 C 68.9375 53.90625 76.347656 53.90625 83.984375 53.90625 C 83.984375 55.890625 83.914062 57.167969 83.398438 58.984375 C 83.34375 59.175781 83.289062 59.371094 83.234375 59.570312 C 81.765625 64.339844 78.570312 68.289062 74.21875 70.703125 C 69.496094 73.160156 64.3125 73.875 59.179688 72.265625 C 56.429688 71.296875 53.828125 69.84375 51.757812 67.773438 C 50.980469 67.828125 50.417969 68.320312 49.792969 68.75 C 44.699219 72.125 38.054688 74.011719 31.960938 72.816406 C 30.164062 72.414062 28.476562 71.816406 26.867188 70.910156 C 26.375 70.648438 26.375 70.648438 25.878906 70.835938 C 25.71875 70.921875 25.554688 71.007812 25.390625 71.09375 C 24.183594 71.597656 22.976562 71.765625 21.738281 71.277344 C 20.382812 70.53125 19.628906 69.625 19.140625 68.164062 C 19.023438 66.878906 19.183594 66 19.726562 64.84375 C 19.875 64.015625 19.566406 63.527344 19.183594 62.804688 C 16.789062 57.777344 17.0625 51.828125 18.820312 46.660156 C 20.332031 42.640625 22.617188 39.210938 25.585938 36.132812 C 25.726562 35.980469 25.867188 35.828125 26.007812 35.671875 C 28.835938 32.679688 32.664062 30.453125 36.523438 29.101562 C 36.738281 29.027344 36.953125 28.949219 37.175781 28.871094 C 42.382812 27.144531 47.921875 27.519531 52.910156 29.636719 C 53.109375 29.714844 53.308594 29.796875 53.515625 29.882812 C 53.714844 29.964844 53.714844 29.964844 53.914062 30.050781 C 54.34375 30.117188 54.34375 30.117188 54.824219 29.777344 C 55.597656 29.433594 55.972656 29.523438 56.800781 29.652344 C 58.089844 29.675781 58.683594 29.394531 59.636719 28.535156 C 60.347656 27.832031 61.03125 27.105469 61.707031 26.367188 C 61.992188 26.066406 62.28125 25.765625 62.570312 25.464844 C 63.269531 24.730469 63.960938 23.988281 64.648438 23.242188 Z M 64.648438 23.242188 "/>
<path style=" stroke:none;fill-rule:nonzero;fill:rgb(94.901961%,0%,31.37255%);fill-opacity:1;" d="M 67.1875 25.585938 C 68.128906 26.371094 69.015625 27.191406 69.878906 28.058594 C 70.007812 28.1875 70.132812 28.3125 70.261719 28.441406 C 70.683594 28.859375 71.101562 29.28125 71.519531 29.699219 C 71.820312 30 72.121094 30.304688 72.421875 30.605469 C 73.242188 31.421875 74.054688 32.238281 74.871094 33.054688 C 75.726562 33.910156 76.582031 34.765625 77.4375 35.621094 C 79.054688 37.238281 80.671875 38.859375 82.289062 40.476562 C 84.128906 42.320312 85.96875 44.160156 87.808594 46.003906 C 91.332031 49.527344 94.851562 53.050781 98.371094 56.574219 C 98.785156 56.988281 99.195312 57.398438 99.609375 57.8125 C 99.589844 58.207031 99.589844 58.207031 99.488281 58.699219 C 99.433594 58.972656 99.433594 58.972656 99.375 59.253906 C 99.332031 59.457031 99.289062 59.65625 99.242188 59.863281 C 99.199219 60.070312 99.152344 60.28125 99.105469 60.496094 C 98.207031 64.523438 96.894531 68.347656 95.117188 72.070312 C 95.046875 72.21875 94.976562 72.367188 94.902344 72.519531 C 92.753906 76.964844 89.746094 81.023438 86.328125 84.570312 C 86.203125 84.699219 86.082031 84.828125 85.953125 84.960938 C 84.167969 86.8125 82.351562 88.519531 80.273438 90.039062 C 80.046875 90.207031 79.824219 90.375 79.597656 90.542969 C 78 91.722656 76.339844 92.773438 74.609375 93.75 C 74.472656 93.828125 74.332031 93.90625 74.191406 93.988281 C 69.125 96.839844 63.542969 98.667969 57.8125 99.609375 C 57.675781 99.632812 57.535156 99.65625 57.394531 99.679688 C 56.589844 99.804688 55.789062 99.894531 54.976562 99.960938 C 54.644531 99.988281 54.316406 100.019531 53.984375 100.054688 C 50.285156 100.421875 50.285156 100.421875 48.746094 99.242188 C 48.078125 98.648438 47.464844 98.015625 46.855469 97.363281 C 46.570312 97.082031 46.289062 96.796875 46.003906 96.515625 C 45.242188 95.753906 44.492188 94.980469 43.746094 94.203125 C 42.960938 93.390625 42.164062 92.589844 41.367188 91.789062 C 39.867188 90.273438 38.375 88.746094 36.890625 87.210938 C 35.195312 85.46875 33.488281 83.734375 31.777344 82.003906 C 28.269531 78.445312 24.773438 74.875 21.289062 71.289062 C 21.484375 71.226562 21.675781 71.160156 21.875 71.09375 C 22.003906 71.15625 22.132812 71.222656 22.265625 71.289062 C 23.582031 71.417969 24.578125 71.230469 25.78125 70.703125 C 26.367188 70.507812 26.367188 70.507812 26.960938 70.761719 C 27.203125 70.882812 27.445312 71.007812 27.6875 71.128906 C 32.535156 73.519531 38.304688 73.378906 43.359375 71.679688 C 45.851562 70.796875 48.46875 69.703125 50.550781 68.042969 C 51.171875 67.578125 51.171875 67.578125 51.558594 67.609375 C 52.015625 67.800781 52.269531 68.027344 52.625 68.371094 C 56.492188 71.855469 61.605469 73.148438 66.699219 72.886719 C 70.640625 72.601562 74.613281 70.785156 77.539062 68.164062 C 77.714844 68.007812 77.886719 67.851562 78.070312 67.691406 C 82.003906 63.96875 83.578125 59.210938 83.984375 53.90625 C 76.570312 53.90625 69.160156 53.90625 61.523438 53.90625 C 61.683594 52.789062 61.898438 51.734375 62.164062 50.640625 C 62.785156 47.808594 62.828125 44.421875 62.109375 41.601562 C 62.054688 41.378906 62 41.15625 61.945312 40.925781 C 61.652344 39.8125 61.324219 38.804688 60.777344 37.792969 C 60.457031 37.191406 60.351562 36.96875 60.363281 36.265625 C 60.546875 35.742188 60.546875 35.742188 60.757812 35.304688 C 60.980469 34.636719 60.933594 34.113281 60.890625 33.410156 C 60.863281 32.160156 60.863281 32.160156 61.183594 31.59375 C 61.5 31.273438 61.5 31.273438 62.109375 30.859375 C 62.238281 30.859375 62.367188 30.859375 62.5 30.859375 C 62.53125 31 62.5625 31.140625 62.59375 31.28125 C 63.367188 34.582031 64.550781 37.605469 67.382812 39.648438 C 70.125 41.265625 72.859375 41.765625 75.976562 42.1875 C 75.902344 38.40625 74.824219 34.644531 72.152344 31.878906 C 70.054688 29.960938 67.359375 29.164062 64.648438 28.515625 C 65.488281 27.53125 66.335938 26.558594 67.1875 25.585938 Z M 67.1875 25.585938 "/>
<path style=" stroke:none;fill-rule:nonzero;fill:rgb(99.607843%,84.705883%,18.039216%);fill-opacity:1;" d="M 52.910156 29.636719 C 53.585938 29.917969 53.585938 29.917969 54.296875 30.078125 C 54.453125 29.984375 54.609375 29.894531 54.773438 29.796875 C 55.941406 29.285156 57.304688 29.25 58.519531 29.667969 C 58.949219 29.882812 58.949219 29.882812 59.570312 30.273438 C 59.570312 31.054688 59.570312 31.054688 59.320312 31.402344 C 59.203125 31.519531 59.085938 31.636719 58.964844 31.757812 C 58.828125 31.894531 58.695312 32.03125 58.554688 32.171875 C 58.402344 32.320312 58.253906 32.46875 58.097656 32.621094 C 57.9375 32.78125 57.78125 32.941406 57.617188 33.105469 C 57.175781 33.546875 56.734375 33.984375 56.289062 34.425781 C 55.8125 34.898438 55.335938 35.375 54.863281 35.851562 C 54.039062 36.675781 53.210938 37.5 52.382812 38.324219 C 51.1875 39.511719 49.996094 40.703125 48.800781 41.898438 C 46.863281 43.832031 44.925781 45.765625 42.984375 47.699219 C 41.101562 49.574219 39.21875 51.453125 37.339844 53.328125 C 37.222656 53.445312 37.105469 53.5625 36.988281 53.679688 C 36.40625 54.261719 35.824219 54.839844 35.242188 55.421875 C 30.753906 59.902344 26.265625 64.382812 21.769531 68.859375 C 21.632812 68.992188 21.5 69.128906 21.359375 69.269531 C 21.179688 69.445312 21.179688 69.445312 21 69.625 C 20.769531 69.855469 20.542969 70.082031 20.3125 70.3125 C 20.152344 70.066406 19.996094 69.816406 19.835938 69.566406 C 19.75 69.429688 19.660156 69.292969 19.570312 69.148438 C 19.023438 68.214844 19.042969 67.261719 19.140625 66.210938 C 19.300781 65.730469 19.511719 65.300781 19.726562 64.84375 C 19.875 64.015625 19.566406 63.527344 19.183594 62.804688 C 16.789062 57.777344 17.0625 51.828125 18.820312 46.660156 C 20.332031 42.640625 22.617188 39.210938 25.585938 36.132812 C 25.726562 35.980469 25.867188 35.828125 26.007812 35.671875 C 28.835938 32.679688 32.664062 30.453125 36.523438 29.101562 C 36.738281 29.027344 36.953125 28.949219 37.175781 28.871094 C 42.382812 27.144531 47.921875 27.519531 52.910156 29.636719 Z M 52.910156 29.636719 "/>
<path style=" stroke:none;fill-rule:nonzero;fill:rgb(99.607843%,99.215686%,97.254902%);fill-opacity:1;" d="M 48.242188 53.90625 C 59.265625 53.90625 70.285156 53.90625 81.640625 53.90625 C 81.640625 57.089844 81.640625 57.089844 81.25 58.277344 C 81.207031 58.414062 81.164062 58.550781 81.117188 58.691406 C 79.628906 63.195312 76.851562 66.664062 72.65625 68.945312 C 68.804688 70.875 64.265625 71.421875 60.105469 70.195312 C 57.898438 69.371094 55.941406 68.269531 54.101562 66.796875 C 53.976562 66.703125 53.851562 66.605469 53.722656 66.507812 C 50.660156 64.0625 48.992188 60.199219 48.242188 56.445312 C 48.242188 55.609375 48.242188 54.769531 48.242188 53.90625 Z M 48.242188 53.90625 "/>
<path style=" stroke:none;fill-rule:nonzero;fill:rgb(96.078432%,92.54902%,90.196079%);fill-opacity:1;" d="M 61.328125 53.90625 C 68.03125 53.90625 74.734375 53.90625 81.640625 53.90625 C 81.640625 57.089844 81.640625 57.089844 81.25 58.277344 C 81.207031 58.414062 81.164062 58.550781 81.117188 58.691406 C 79.628906 63.195312 76.851562 66.664062 72.65625 68.945312 C 70.117188 70.214844 67.6875 70.703125 64.84375 70.703125 C 64.90625 65.226562 64.972656 59.746094 65.039062 54.101562 C 63.8125 54.101562 62.589844 54.101562 61.328125 54.101562 C 61.328125 54.039062 61.328125 53.972656 61.328125 53.90625 Z M 61.328125 53.90625 "/>
<path style=" stroke:none;fill-rule:nonzero;fill:rgb(38.82353%,69.803923%,0%);fill-opacity:1;" d="M 64.648438 23.242188 C 65.441406 23.640625 65.785156 23.976562 66.359375 24.632812 C 66.511719 24.8125 66.667969 24.988281 66.832031 25.171875 C 66.949219 25.308594 67.066406 25.445312 67.1875 25.585938 C 66.878906 26.347656 66.378906 26.824219 65.796875 27.390625 C 65.527344 27.652344 65.527344 27.652344 65.257812 27.921875 C 65.121094 28.050781 64.984375 28.183594 64.84375 28.320312 C 65.03125 28.371094 65.21875 28.425781 65.414062 28.476562 C 67.824219 29.167969 70.183594 29.925781 72.070312 31.640625 C 72.277344 31.828125 72.277344 31.828125 72.492188 32.019531 C 74.789062 34.34375 76.011719 37.890625 76.023438 41.113281 C 76.011719 41.472656 76 41.828125 75.976562 42.1875 C 74.761719 42.21875 73.679688 42.132812 72.496094 41.859375 C 72.34375 41.824219 72.191406 41.789062 72.035156 41.75 C 69.078125 41.035156 66.441406 39.640625 64.648438 37.109375 C 63.566406 35.277344 62.398438 33.042969 62.5 30.859375 C 62.40625 30.945312 62.3125 31.027344 62.214844 31.117188 C 62.089844 31.222656 61.96875 31.332031 61.839844 31.445312 C 61.71875 31.554688 61.597656 31.664062 61.46875 31.773438 C 61.132812 32.03125 61.132812 32.03125 60.742188 32.03125 C 60.625 31.855469 60.507812 31.675781 60.386719 31.492188 C 59.96875 30.871094 59.582031 30.523438 58.984375 30.078125 C 58.789062 29.882812 58.597656 29.691406 58.398438 29.492188 C 60.460938 27.429688 62.523438 25.367188 64.648438 23.242188 Z M 64.648438 23.242188 "/>
<path style=" stroke:none;fill-rule:nonzero;fill:rgb(99.607843%,84.313726%,18.431373%);fill-opacity:1;" d="M 45.898438 53.90625 C 46.671875 53.90625 47.445312 53.90625 48.242188 53.90625 C 48.257812 54.121094 48.269531 54.332031 48.285156 54.550781 C 48.605469 58.457031 49.832031 61.804688 52.34375 64.84375 C 52.460938 65 52.578125 65.15625 52.699219 65.316406 C 55.09375 68.144531 58.917969 69.867188 62.5 70.507812 C 67.539062 70.902344 72.089844 69.75 76.007812 66.503906 C 79.234375 63.664062 81.28125 59.382812 81.59375 55.101562 C 81.609375 54.703125 81.628906 54.304688 81.640625 53.90625 C 82.414062 53.90625 83.1875 53.90625 83.984375 53.90625 C 84.042969 55.710938 83.894531 57.25 83.398438 58.984375 C 83.34375 59.175781 83.289062 59.371094 83.234375 59.570312 C 81.765625 64.339844 78.570312 68.289062 74.21875 70.703125 C 69.496094 73.160156 64.3125 73.875 59.179688 72.265625 C 56.160156 71.203125 53.363281 69.546875 51.171875 67.1875 C 51.042969 67.054688 50.910156 66.925781 50.777344 66.789062 C 48.945312 64.875 47.800781 62.625 46.875 60.15625 C 46.789062 59.929688 46.789062 59.929688 46.699219 59.703125 C 46.011719 57.808594 45.847656 55.90625 45.898438 53.90625 Z M 45.898438 53.90625 "/>
<path style=" stroke:none;fill-rule:nonzero;fill:rgb(99.607843%,85.09804%,20%);fill-opacity:1;" d="M 66.992188 54.6875 C 71.375 54.6875 75.757812 54.6875 80.273438 54.6875 C 80.273438 58.371094 78.75 61.371094 76.5625 64.257812 C 75.867188 63.960938 75.417969 63.554688 74.886719 63.023438 C 74.710938 62.847656 74.535156 62.671875 74.351562 62.492188 C 74.164062 62.300781 73.972656 62.109375 73.78125 61.921875 C 73.585938 61.722656 73.390625 61.527344 73.195312 61.332031 C 72.785156 60.925781 72.375 60.515625 71.96875 60.105469 C 71.441406 59.578125 70.917969 59.050781 70.390625 58.527344 C 69.984375 58.125 69.582031 57.722656 69.179688 57.316406 C 68.984375 57.121094 68.789062 56.929688 68.597656 56.734375 C 68.324219 56.464844 68.054688 56.195312 67.785156 55.921875 C 67.632812 55.769531 67.480469 55.613281 67.320312 55.457031 C 66.992188 55.078125 66.992188 55.078125 66.992188 54.6875 Z M 66.992188 54.6875 "/>
<path style=" stroke:none;fill-rule:nonzero;fill:rgb(100%,94.509804%,39.215687%);fill-opacity:1;" d="M 64.257812 55.859375 C 64.257812 60.304688 64.257812 64.753906 64.257812 69.335938 C 60.890625 69.335938 57.789062 67.996094 55.15625 65.925781 C 54.882812 65.625 54.882812 65.625 54.882812 65.039062 C 55.230469 64.621094 55.230469 64.621094 55.722656 64.128906 C 55.8125 64.039062 55.902344 63.949219 55.992188 63.859375 C 56.289062 63.5625 56.585938 63.269531 56.882812 62.972656 C 57.089844 62.769531 57.292969 62.5625 57.5 62.359375 C 57.929688 61.929688 58.363281 61.5 58.792969 61.074219 C 59.347656 60.523438 59.902344 59.972656 60.457031 59.417969 C 60.878906 58.996094 61.304688 58.574219 61.730469 58.152344 C 61.933594 57.949219 62.136719 57.746094 62.34375 57.542969 C 62.625 57.257812 62.910156 56.976562 63.199219 56.691406 C 63.359375 56.53125 63.523438 56.371094 63.691406 56.203125 C 64.0625 55.859375 64.0625 55.859375 64.257812 55.859375 Z M 64.257812 55.859375 "/>
<path style=" stroke:none;fill-rule:nonzero;fill:rgb(100%,94.509804%,39.215687%);fill-opacity:1;" d="M 49.609375 54.6875 C 54.054688 54.6875 58.503906 54.6875 63.085938 54.6875 C 62.40625 55.484375 61.761719 56.230469 61.027344 56.964844 C 60.863281 57.128906 60.699219 57.292969 60.53125 57.460938 C 60.355469 57.632812 60.183594 57.804688 60.003906 57.984375 C 59.824219 58.164062 59.644531 58.34375 59.457031 58.527344 C 58.984375 59.003906 58.507812 59.476562 58.03125 59.953125 C 57.542969 60.4375 57.054688 60.921875 56.570312 61.410156 C 55.617188 62.359375 54.664062 63.308594 53.710938 64.257812 C 51.378906 62.445312 50.046875 59.125 49.609375 56.25 C 49.609375 55.734375 49.609375 55.21875 49.609375 54.6875 Z M 49.609375 54.6875 "/>
<path style=" stroke:none;fill-rule:nonzero;fill:rgb(99.607843%,85.09804%,18.039216%);fill-opacity:1;" d="M 65.820312 56.054688 C 67.359375 57.375 67.359375 57.375 68.078125 58.09375 C 68.238281 58.253906 68.398438 58.414062 68.5625 58.582031 C 68.730469 58.75 68.898438 58.917969 69.074219 59.09375 C 69.25 59.269531 69.425781 59.445312 69.605469 59.625 C 70.070312 60.089844 70.53125 60.554688 70.992188 61.019531 C 71.46875 61.496094 71.941406 61.96875 72.414062 62.445312 C 73.34375 63.375 74.269531 64.304688 75.195312 65.234375 C 72.898438 68.085938 69.308594 68.871094 65.820312 69.335938 C 65.820312 64.953125 65.820312 60.570312 65.820312 56.054688 Z M 65.820312 56.054688 "/>
<path style=" stroke:none;fill-rule:nonzero;fill:rgb(99.607843%,79.215688%,1.176471%);fill-opacity:1;" d="M 81.640625 53.90625 C 82.414062 53.90625 83.1875 53.90625 83.984375 53.90625 C 84.042969 55.710938 83.894531 57.25 83.398438 58.984375 C 83.34375 59.175781 83.289062 59.371094 83.234375 59.570312 C 81.765625 64.339844 78.570312 68.289062 74.21875 70.703125 C 71.757812 71.984375 69.320312 72.898438 66.527344 72.863281 C 66.382812 72.863281 66.242188 72.863281 66.09375 72.859375 C 65.742188 72.859375 65.390625 72.855469 65.039062 72.851562 C 65.039062 72.140625 65.039062 71.433594 65.039062 70.703125 C 65.226562 70.6875 65.414062 70.667969 65.605469 70.652344 C 70.273438 70.179688 74.691406 68.425781 77.765625 64.738281 C 80.160156 61.519531 81.519531 57.914062 81.640625 53.90625 Z M 81.640625 53.90625 "/>
<path style=" stroke:none;fill-rule:nonzero;fill:rgb(70.980394%,30.588236%,2.745098%);fill-opacity:1;" d="M 64.648438 23.242188 C 65.441406 23.640625 65.785156 23.976562 66.359375 24.632812 C 66.511719 24.8125 66.667969 24.988281 66.832031 25.171875 C 66.949219 25.308594 67.066406 25.445312 67.1875 25.585938 C 66.671875 26.796875 65.707031 27.769531 64.648438 28.515625 C 63.8125 28.636719 63.117188 28.539062 62.304688 28.320312 C 62.335938 28.488281 62.363281 28.660156 62.394531 28.835938 C 62.640625 30.640625 62.640625 30.640625 62.222656 31.289062 C 61.351562 32.03125 61.351562 32.03125 60.742188 32.03125 C 60.625 31.855469 60.507812 31.675781 60.386719 31.492188 C 59.96875 30.871094 59.582031 30.523438 58.984375 30.078125 C 58.789062 29.882812 58.597656 29.691406 58.398438 29.492188 C 60.460938 27.429688 62.523438 25.367188 64.648438 23.242188 Z M 64.648438 23.242188 "/>
<path style=" stroke:none;fill-rule:nonzero;fill:rgb(57.254905%,24.705882%,0.784314%);fill-opacity:1;" d="M 65.820312 24.609375 C 66.378906 24.875 66.769531 25.125 67.1875 25.585938 C 66.671875 26.796875 65.707031 27.769531 64.648438 28.515625 C 63.8125 28.636719 63.117188 28.539062 62.304688 28.320312 C 63.390625 26.996094 64.601562 25.808594 65.820312 24.609375 Z M 65.820312 24.609375 "/>
<path style=" stroke:none;fill-rule:nonzero;fill:rgb(57.647061%,25.882354%,0.784314%);fill-opacity:1;" d="M 62.304688 28.320312 C 62.699219 30.550781 62.699219 30.550781 62.222656 31.289062 C 61.351562 32.03125 61.351562 32.03125 60.742188 32.03125 C 60.472656 31.648438 60.210938 31.257812 59.960938 30.859375 C 60.261719 30.144531 60.691406 29.691406 61.242188 29.148438 C 61.398438 28.996094 61.558594 28.839844 61.71875 28.675781 C 62.109375 28.320312 62.109375 28.320312 62.304688 28.320312 Z M 62.304688 28.320312 "/>
</g>
</svg>
