<?xml version="1.0" encoding="UTF-8"?>
<svg xmlns="http://www.w3.org/2000/svg" xmlns:xlink="http://www.w3.org/1999/xlink" width="100px" height="100px" viewBox="0 0 100 100" version="1.1">
<g id="surface1">
<path style=" stroke:none;fill-rule:nonzero;fill:rgb(41.960785%,59.215689%,98.039216%);fill-opacity:1;" d="M 49.925781 -0.0625 C 50.125 -0.0625 50.324219 -0.0585938 50.527344 -0.0585938 C 53.382812 -0.0507812 56.183594 0 58.984375 0.585938 C 59.175781 0.625 59.363281 0.664062 59.5625 0.703125 C 69.011719 2.679688 77.601562 6.960938 84.570312 13.671875 C 84.761719 13.855469 84.761719 13.855469 84.960938 14.046875 C 86.8125 15.832031 88.519531 17.648438 90.039062 19.726562 C 90.207031 19.953125 90.375 20.175781 90.542969 20.402344 C 91.722656 22 92.769531 23.664062 93.75 25.390625 C 93.820312 25.515625 93.890625 25.636719 93.964844 25.765625 C 98.1875 33.136719 100.09375 41.488281 100.0625 49.925781 C 100.0625 50.125 100.058594 50.324219 100.058594 50.527344 C 100.050781 53.382812 100 56.183594 99.414062 58.984375 C 99.355469 59.269531 99.355469 59.269531 99.296875 59.5625 C 97.320312 69.011719 93.039062 77.601562 86.328125 84.570312 C 86.203125 84.699219 86.082031 84.828125 85.953125 84.960938 C 84.167969 86.8125 82.351562 88.519531 80.273438 90.039062 C 80.046875 90.207031 79.824219 90.375 79.597656 90.542969 C 78 91.722656 76.339844 92.773438 74.609375 93.75 C 74.472656 93.828125 74.332031 93.90625 74.191406 93.988281 C 69.671875 96.53125 64.757812 98.242188 59.679688 99.28125 C 59.539062 99.308594 59.398438 99.335938 59.253906 99.367188 C 56.386719 99.910156 53.550781 100.066406 50.640625 100.0625 C 50.066406 100.0625 49.492188 100.066406 48.917969 100.070312 C 46.304688 100.078125 43.785156 99.84375 41.210938 99.414062 C 40.878906 99.359375 40.878906 99.359375 40.539062 99.300781 C 32.085938 97.785156 24.070312 93.882812 17.578125 88.28125 C 17.433594 88.15625 17.285156 88.035156 17.136719 87.90625 C 14.5 85.597656 12.023438 83.109375 9.960938 80.273438 C 9.792969 80.050781 9.625 79.824219 9.457031 79.601562 C 8.277344 78 7.226562 76.339844 6.25 74.609375 C 6.171875 74.472656 6.09375 74.332031 6.011719 74.191406 C 3.46875 69.671875 1.757812 64.757812 0.71875 59.679688 C 0.691406 59.539062 0.664062 59.398438 0.632812 59.253906 C 0.0507812 56.199219 -0.0742188 53.175781 -0.0625 50.074219 C -0.0625 49.875 -0.0585938 49.675781 -0.0585938 49.472656 C -0.0507812 46.617188 0 43.816406 0.585938 41.015625 C 0.625 40.824219 0.664062 40.636719 0.703125 40.4375 C 2.679688 30.988281 6.960938 22.398438 13.671875 15.429688 C 13.796875 15.300781 13.917969 15.171875 14.046875 15.039062 C 15.832031 13.1875 17.648438 11.480469 19.726562 9.960938 C 19.953125 9.792969 20.175781 9.625 20.402344 9.457031 C 22 8.277344 23.660156 7.226562 25.390625 6.25 C 25.527344 6.171875 25.667969 6.09375 25.808594 6.011719 C 30.328125 3.46875 35.242188 1.757812 40.320312 0.71875 C 40.460938 0.691406 40.601562 0.664062 40.746094 0.632812 C 43.800781 0.0507812 46.824219 -0.0742188 49.925781 -0.0625 Z M 49.925781 -0.0625 "/>
<path style=" stroke:none;fill-rule:nonzero;fill:rgb(99.607843%,43.529412%,21.960784%);fill-opacity:1;" d="M 56.640625 25.585938 C 56.777344 25.613281 56.914062 25.636719 57.058594 25.664062 C 62.40625 26.730469 67.664062 29.476562 71.636719 33.191406 C 72.023438 33.550781 72.417969 33.882812 72.828125 34.214844 C 75.925781 36.941406 78.179688 40.617188 79.882812 44.335938 C 79.988281 44.558594 80.09375 44.785156 80.203125 45.015625 C 80.765625 46.246094 81.210938 47.492188 81.578125 48.792969 C 81.617188 48.921875 81.652344 49.050781 81.691406 49.183594 C 82.433594 51.925781 82.726562 54.613281 82.703125 57.445312 C 82.703125 57.601562 82.703125 57.761719 82.699219 57.921875 C 82.652344 65.867188 79.820312 73.285156 74.609375 79.296875 C 74.460938 79.46875 74.316406 79.640625 74.164062 79.816406 C 68.785156 85.941406 60.699219 89.746094 52.601562 90.402344 C 44.09375 90.933594 35.488281 88.460938 28.992188 82.804688 C 28.25 82.140625 27.539062 81.445312 26.835938 80.742188 C 26.5625 80.46875 26.289062 80.199219 26.003906 79.9375 C 23.917969 77.980469 22.414062 75.519531 21.085938 73.007812 C 20.921875 72.703125 20.753906 72.402344 20.585938 72.101562 C 16.878906 65.300781 16.296875 56.417969 18.359375 49.023438 C 18.402344 48.859375 18.449219 48.699219 18.496094 48.53125 C 20.230469 42.46875 23.964844 36.582031 28.90625 32.617188 C 29.089844 32.46875 29.273438 32.316406 29.464844 32.164062 C 33.8125 28.679688 39.023438 26.273438 44.53125 25.390625 C 44.765625 25.351562 44.996094 25.3125 45.234375 25.269531 C 49.027344 24.699219 52.882812 24.863281 56.640625 25.585938 Z M 56.640625 25.585938 "/>
<path style=" stroke:none;fill-rule:nonzero;fill:rgb(30.588236%,36.470589%,80.000001%);fill-opacity:1;" d="M 44.632812 7.75 C 46.550781 8.761719 48.0625 10.019531 49.609375 11.523438 C 49.777344 11.6875 49.945312 11.851562 50.121094 12.019531 C 52.519531 14.496094 53.769531 17.636719 54.6875 20.898438 C 54.75 21.09375 54.816406 21.285156 54.882812 21.484375 C 55.019531 21.277344 55.019531 21.277344 55.164062 21.070312 C 57.226562 18.109375 59.925781 16.332031 63.472656 15.609375 C 66.984375 15 70.890625 15.242188 74.351562 16.070312 C 75.007812 16.222656 75.007812 16.222656 75.71875 16.296875 C 78.832031 16.785156 80.765625 19.070312 82.871094 21.210938 C 83.410156 21.761719 83.960938 22.308594 84.507812 22.851562 C 85.425781 23.769531 86.339844 24.6875 87.25 25.613281 C 88.296875 26.675781 89.351562 27.730469 90.414062 28.777344 C 91.4375 29.796875 92.457031 30.820312 93.476562 31.84375 C 93.90625 32.277344 94.339844 32.710938 94.773438 33.140625 C 95.285156 33.648438 95.792969 34.160156 96.292969 34.675781 C 96.5625 34.953125 96.839844 35.222656 97.113281 35.492188 C 98.46875 36.898438 98.867188 38.15625 99.21875 40.039062 C 99.253906 40.230469 99.292969 40.417969 99.332031 40.617188 C 99.414062 41.066406 99.484375 41.515625 99.546875 41.96875 C 99.570312 42.117188 99.59375 42.265625 99.617188 42.417969 C 99.683594 42.863281 99.746094 43.304688 99.804688 43.75 C 99.820312 43.875 99.835938 44 99.855469 44.125 C 99.992188 45.25 100.035156 46.355469 100.039062 47.488281 C 100.042969 47.671875 100.042969 47.855469 100.042969 48.046875 C 100.089844 55.765625 100.089844 55.765625 99.414062 58.984375 C 99.355469 59.269531 99.355469 59.269531 99.296875 59.5625 C 97.320312 69.011719 93.039062 77.601562 86.328125 84.570312 C 86.203125 84.699219 86.082031 84.828125 85.953125 84.960938 C 84.167969 86.8125 82.351562 88.519531 80.273438 90.039062 C 80.046875 90.207031 79.824219 90.375 79.597656 90.542969 C 78 91.722656 76.339844 92.773438 74.609375 93.75 C 74.472656 93.828125 74.332031 93.90625 74.191406 93.988281 C 69.671875 96.53125 64.757812 98.242188 59.679688 99.28125 C 59.539062 99.308594 59.398438 99.335938 59.253906 99.367188 C 56.402344 99.910156 53.542969 100.089844 50.644531 100.117188 C 50.261719 100.121094 49.875 100.128906 49.492188 100.140625 C 48.925781 100.15625 48.359375 100.164062 47.796875 100.167969 C 47.625 100.171875 47.453125 100.179688 47.277344 100.1875 C 46.589844 100.183594 46.085938 100.171875 45.5625 99.691406 C 45.460938 99.5625 45.359375 99.433594 45.25 99.300781 C 44.558594 98.46875 43.824219 97.703125 43.058594 96.941406 C 42.917969 96.800781 42.777344 96.660156 42.632812 96.511719 C 42.175781 96.054688 41.714844 95.59375 41.257812 95.136719 C 40.9375 94.816406 40.617188 94.496094 40.292969 94.175781 C 39.625 93.503906 38.957031 92.835938 38.285156 92.167969 C 37.425781 91.308594 36.566406 90.449219 35.707031 89.589844 C 35.046875 88.925781 34.386719 88.265625 33.726562 87.605469 C 33.410156 87.289062 33.089844 86.972656 32.773438 86.65625 C 32.332031 86.210938 31.890625 85.773438 31.449219 85.332031 C 31.320312 85.199219 31.1875 85.066406 31.054688 84.933594 C 30.871094 84.753906 30.871094 84.753906 30.6875 84.570312 C 30.582031 84.464844 30.480469 84.359375 30.371094 84.253906 C 30.046875 83.941406 30.046875 83.941406 29.492188 83.59375 C 29.554688 83.464844 29.621094 83.335938 29.6875 83.203125 C 29.847656 83.324219 30.007812 83.445312 30.175781 83.570312 C 37.394531 88.894531 45.933594 91.191406 54.847656 89.917969 C 57.023438 89.578125 59.070312 89.050781 61.132812 88.28125 C 61.261719 88.234375 61.390625 88.1875 61.527344 88.140625 C 65.347656 86.75 68.585938 84.660156 71.679688 82.03125 C 71.824219 81.914062 71.964844 81.792969 72.113281 81.671875 C 73.039062 80.886719 73.839844 80.042969 74.609375 79.101562 C 74.6875 79.007812 74.769531 78.910156 74.851562 78.8125 C 80.742188 71.695312 83.074219 63.046875 82.421875 53.90625 C 82.242188 52.242188 81.898438 50.632812 81.445312 49.023438 C 81.402344 48.863281 81.355469 48.699219 81.308594 48.53125 C 79.492188 42.183594 75.558594 36.25 70.3125 32.226562 C 70.042969 32.011719 70.042969 32.011719 69.765625 31.789062 C 63.777344 27.101562 56.496094 25.144531 49 25.183594 C 48.679688 25.183594 48.359375 25.183594 48.039062 25.1875 C 47.257812 25.1875 46.480469 25.191406 45.703125 25.195312 C 45.691406 25.007812 45.679688 24.820312 45.664062 24.628906 C 45.648438 24.382812 45.632812 24.140625 45.617188 23.886719 C 45.597656 23.644531 45.582031 23.398438 45.566406 23.148438 C 45.496094 22.339844 45.398438 21.664062 45.117188 20.898438 C 44.863281 20.757812 44.601562 20.628906 44.335938 20.507812 C 44.027344 20.25 44.027344 20.25 43.726562 19.957031 C 43.609375 19.84375 43.496094 19.734375 43.378906 19.621094 C 43.257812 19.5 43.136719 19.378906 43.011719 19.257812 C 42.824219 19.070312 42.824219 19.070312 42.628906 18.878906 C 42.359375 18.613281 42.09375 18.347656 41.828125 18.082031 C 41.421875 17.679688 41.015625 17.28125 40.605469 16.882812 C 37.5625 13.875 37.5625 13.875 37.378906 11.71875 C 37.457031 10.398438 37.957031 9.289062 38.914062 8.371094 C 40.660156 6.972656 42.582031 6.808594 44.632812 7.75 Z M 44.632812 7.75 "/>
<path style=" stroke:none;fill-rule:nonzero;fill:rgb(99.607843%,61.176473%,12.941177%);fill-opacity:1;" d="M 50 25.195312 C 50 46.65625 50 68.121094 50 90.234375 C 41.351562 90.234375 33.5625 87.363281 27.34375 81.25 C 27.175781 81.082031 27.007812 80.914062 26.835938 80.742188 C 26.5625 80.46875 26.289062 80.199219 26.003906 79.9375 C 23.917969 77.980469 22.414062 75.519531 21.085938 73.007812 C 20.921875 72.703125 20.753906 72.402344 20.585938 72.101562 C 16.878906 65.300781 16.296875 56.417969 18.359375 49.023438 C 18.402344 48.859375 18.449219 48.699219 18.496094 48.53125 C 20.230469 42.46875 23.964844 36.582031 28.90625 32.617188 C 29.089844 32.46875 29.273438 32.316406 29.464844 32.164062 C 35.496094 27.328125 42.324219 25.195312 50 25.195312 Z M 50 25.195312 "/>
<path style=" stroke:none;fill-rule:nonzero;fill:rgb(22.745098%,63.529414%,37.254903%);fill-opacity:1;" d="M 44.632812 7.75 C 46.550781 8.761719 48.0625 10.019531 49.609375 11.523438 C 49.777344 11.6875 49.945312 11.851562 50.121094 12.019531 C 52.519531 14.496094 53.769531 17.636719 54.6875 20.898438 C 54.75 21.09375 54.816406 21.285156 54.882812 21.484375 C 55.019531 21.277344 55.019531 21.277344 55.164062 21.070312 C 57.226562 18.109375 59.925781 16.332031 63.472656 15.609375 C 64.757812 15.386719 66.023438 15.355469 67.320312 15.355469 C 67.566406 15.355469 67.816406 15.355469 68.070312 15.355469 C 70.433594 15.386719 72.691406 15.710938 75 16.210938 C 75.246094 16.265625 75.246094 16.265625 75.5 16.316406 C 77.292969 16.710938 77.292969 16.710938 78.125 16.992188 C 78.1875 17.121094 78.253906 17.25 78.320312 17.382812 C 78.152344 17.851562 77.976562 18.296875 77.769531 18.75 C 77.710938 18.886719 77.648438 19.027344 77.585938 19.167969 C 76.363281 21.84375 74.945312 24.3125 73.046875 26.5625 C 72.964844 26.664062 72.878906 26.765625 72.792969 26.867188 C 71.492188 28.429688 70.078125 29.582031 68.359375 30.664062 C 68.128906 30.527344 68.128906 30.527344 67.890625 30.382812 C 64.335938 28.300781 60.683594 26.632812 56.640625 25.78125 C 56.425781 25.734375 56.425781 25.734375 56.210938 25.691406 C 52.746094 24.996094 49.21875 25.136719 45.703125 25.195312 C 45.691406 25.007812 45.679688 24.820312 45.664062 24.628906 C 45.648438 24.382812 45.632812 24.140625 45.617188 23.886719 C 45.597656 23.644531 45.582031 23.398438 45.566406 23.148438 C 45.496094 22.339844 45.398438 21.664062 45.117188 20.898438 C 44.863281 20.757812 44.601562 20.628906 44.335938 20.507812 C 44.027344 20.25 44.027344 20.25 43.726562 19.957031 C 43.554688 19.789062 43.554688 19.789062 43.378906 19.621094 C 43.257812 19.5 43.136719 19.378906 43.011719 19.257812 C 42.886719 19.132812 42.757812 19.007812 42.628906 18.878906 C 42.359375 18.613281 42.09375 18.347656 41.828125 18.082031 C 41.421875 17.679688 41.015625 17.28125 40.605469 16.882812 C 37.5625 13.875 37.5625 13.875 37.378906 11.71875 C 37.457031 10.398438 37.957031 9.289062 38.914062 8.371094 C 40.660156 6.972656 42.582031 6.808594 44.632812 7.75 Z M 44.632812 7.75 "/>
<path style=" stroke:none;fill-rule:nonzero;fill:rgb(25.882354%,30.588236%,40.000001%);fill-opacity:1;" d="M 44.632812 7.75 C 46.550781 8.761719 48.0625 10.019531 49.609375 11.523438 C 49.777344 11.6875 49.945312 11.851562 50.121094 12.019531 C 53.65625 15.671875 54.945312 20.453125 54.882812 25.390625 C 54.753906 25.375 54.628906 25.363281 54.496094 25.347656 C 52.652344 25.167969 50.824219 25.171875 48.976562 25.183594 C 48.65625 25.183594 48.335938 25.183594 48.019531 25.1875 C 47.246094 25.1875 46.476562 25.191406 45.703125 25.195312 C 45.691406 25.007812 45.679688 24.820312 45.664062 24.628906 C 45.648438 24.382812 45.632812 24.140625 45.617188 23.886719 C 45.597656 23.644531 45.582031 23.398438 45.566406 23.148438 C 45.496094 22.339844 45.398438 21.664062 45.117188 20.898438 C 44.863281 20.757812 44.601562 20.628906 44.335938 20.507812 C 44.027344 20.25 44.027344 20.25 43.726562 19.957031 C 43.554688 19.789062 43.554688 19.789062 43.378906 19.621094 C 43.257812 19.5 43.136719 19.378906 43.011719 19.257812 C 42.886719 19.132812 42.757812 19.007812 42.628906 18.878906 C 42.359375 18.613281 42.09375 18.347656 41.828125 18.082031 C 41.421875 17.679688 41.015625 17.28125 40.605469 16.882812 C 37.5625 13.875 37.5625 13.875 37.378906 11.71875 C 37.457031 10.398438 37.957031 9.289062 38.914062 8.371094 C 40.660156 6.972656 42.582031 6.808594 44.632812 7.75 Z M 44.632812 7.75 "/>
<path style=" stroke:none;fill-rule:nonzero;fill:rgb(16.078432%,19.215687%,24.313726%);fill-opacity:1;" d="M 50 12.109375 C 51.101562 12.988281 51.101562 12.988281 51.457031 13.554688 C 51.578125 13.742188 51.578125 13.742188 51.699219 13.929688 C 51.777344 14.0625 51.859375 14.195312 51.941406 14.332031 C 52.027344 14.46875 52.109375 14.605469 52.199219 14.75 C 54.261719 18.179688 54.921875 21.4375 54.882812 25.390625 C 53.273438 25.261719 51.660156 25.132812 50 25 C 50 20.746094 50 16.492188 50 12.109375 Z M 50 12.109375 "/>
<path style=" stroke:none;fill-rule:nonzero;fill:rgb(100%,43.921569%,21.568628%);fill-opacity:1;" d="M 42.25 70.824219 C 43.082031 71.5625 43.492188 72.222656 43.652344 73.328125 C 43.511719 74.324219 43.230469 75.152344 42.484375 75.859375 C 41.554688 76.480469 40.542969 76.546875 39.453125 76.367188 C 38.449219 75.855469 37.855469 75.285156 37.5 74.21875 C 37.394531 73.308594 37.410156 72.640625 37.828125 71.8125 C 39.128906 70.304688 40.441406 69.9375 42.25 70.824219 Z M 42.25 70.824219 "/>
<path style=" stroke:none;fill-rule:nonzero;fill:rgb(100%,43.921569%,21.568628%);fill-opacity:1;" d="M 33.800781 53.527344 C 34.542969 54.015625 35.117188 54.484375 35.546875 55.273438 C 35.730469 56.210938 35.628906 56.988281 35.316406 57.886719 C 34.792969 58.644531 34.273438 59.082031 33.398438 59.375 C 32.523438 59.511719 31.765625 59.5625 30.984375 59.105469 C 30.011719 58.285156 29.574219 57.648438 29.40625 56.382812 C 29.53125 55.320312 29.964844 54.527344 30.789062 53.828125 C 31.804688 53.179688 32.683594 53.140625 33.800781 53.527344 Z M 33.800781 53.527344 "/>
<path style=" stroke:none;fill-rule:nonzero;fill:rgb(100%,43.921569%,21.568628%);fill-opacity:1;" d="M 30.46875 65.234375 C 31.441406 65.730469 32.128906 66.402344 32.617188 67.382812 C 32.691406 68.476562 32.65625 69.175781 32.03125 70.117188 C 31.269531 70.886719 30.636719 71.257812 29.539062 71.351562 C 28.652344 71.332031 28.007812 71.105469 27.34375 70.507812 C 26.605469 69.523438 26.40625 68.589844 26.5625 67.382812 C 27.4375 65.699219 28.628906 65.011719 30.46875 65.234375 Z M 30.46875 65.234375 "/>
<path style=" stroke:none;fill-rule:nonzero;fill:rgb(30.19608%,36.078432%,78.823531%);fill-opacity:1;" d="M 51.367188 13.476562 C 51.496094 13.476562 51.625 13.476562 51.757812 13.476562 C 52.027344 13.75 52.027344 13.75 52.34375 14.136719 C 53.199219 15.140625 54.128906 16.0625 55.066406 16.992188 C 55.238281 17.164062 55.40625 17.332031 55.582031 17.507812 C 56 17.921875 56.417969 18.335938 56.835938 18.75 C 56.527344 19.386719 56.171875 19.953125 55.761719 20.53125 C 55.582031 20.785156 55.582031 20.785156 55.402344 21.046875 C 55.078125 21.484375 55.078125 21.484375 54.6875 21.875 C 54.636719 21.644531 54.582031 21.410156 54.527344 21.171875 C 53.945312 18.71875 53.148438 16.484375 51.710938 14.390625 C 51.367188 13.867188 51.367188 13.867188 51.367188 13.476562 Z M 51.367188 13.476562 "/>
<path style=" stroke:none;fill-rule:nonzero;fill:rgb(30.588236%,37.254903%,78.823531%);fill-opacity:1;" d="M 39.453125 15.429688 C 41.695312 16.25 43.519531 17.976562 44.78125 19.96875 C 44.921875 20.3125 44.921875 20.3125 44.726562 20.898438 C 43.976562 20.152344 43.222656 19.402344 42.472656 18.65625 C 42.21875 18.402344 41.960938 18.148438 41.707031 17.894531 C 41.339844 17.527344 40.972656 17.164062 40.605469 16.796875 C 40.492188 16.683594 40.375 16.570312 40.257812 16.449219 C 39.984375 16.179688 39.71875 15.902344 39.453125 15.625 C 39.453125 15.5625 39.453125 15.496094 39.453125 15.429688 Z M 39.453125 15.429688 "/>
</g>
</svg>
