<?xml version="1.0" encoding="UTF-8"?>
<svg xmlns="http://www.w3.org/2000/svg" xmlns:xlink="http://www.w3.org/1999/xlink" width="100px" height="100px" viewBox="0 0 100 100" version="1.1">
<g id="surface1">
<path style=" stroke:none;fill-rule:nonzero;fill:rgb(47.058824%,51.372552%,92.941177%);fill-opacity:1;" d="M 49.925781 -0.0625 C 50.125 -0.0625 50.324219 -0.0585938 50.527344 -0.0585938 C 53.382812 -0.0507812 56.183594 0 58.984375 0.585938 C 59.175781 0.625 59.363281 0.664062 59.5625 0.703125 C 69.011719 2.679688 77.601562 6.960938 84.570312 13.671875 C 84.761719 13.855469 84.761719 13.855469 84.960938 14.046875 C 86.8125 15.832031 88.519531 17.648438 90.039062 19.726562 C 90.207031 19.953125 90.375 20.175781 90.542969 20.402344 C 91.722656 22 92.769531 23.664062 93.75 25.390625 C 93.820312 25.515625 93.890625 25.636719 93.964844 25.765625 C 98.1875 33.136719 100.09375 41.488281 100.0625 49.925781 C 100.0625 50.125 100.058594 50.324219 100.058594 50.527344 C 100.050781 53.382812 100 56.183594 99.414062 58.984375 C 99.355469 59.269531 99.355469 59.269531 99.296875 59.5625 C 97.320312 69.011719 93.039062 77.601562 86.328125 84.570312 C 86.203125 84.699219 86.082031 84.828125 85.953125 84.960938 C 84.167969 86.8125 82.351562 88.519531 80.273438 90.039062 C 80.046875 90.207031 79.824219 90.375 79.597656 90.542969 C 78 91.722656 76.339844 92.773438 74.609375 93.75 C 74.472656 93.828125 74.332031 93.90625 74.191406 93.988281 C 69.671875 96.53125 64.757812 98.242188 59.679688 99.28125 C 59.539062 99.308594 59.398438 99.335938 59.253906 99.367188 C 56.386719 99.910156 53.550781 100.066406 50.640625 100.0625 C 50.066406 100.0625 49.492188 100.066406 48.917969 100.070312 C 46.304688 100.078125 43.785156 99.84375 41.210938 99.414062 C 40.878906 99.359375 40.878906 99.359375 40.539062 99.300781 C 32.085938 97.785156 24.070312 93.882812 17.578125 88.28125 C 17.433594 88.15625 17.285156 88.035156 17.136719 87.90625 C 14.5 85.597656 12.023438 83.109375 9.960938 80.273438 C 9.792969 80.050781 9.625 79.824219 9.457031 79.601562 C 8.277344 78 7.226562 76.339844 6.25 74.609375 C 6.171875 74.472656 6.09375 74.332031 6.011719 74.191406 C 3.46875 69.671875 1.757812 64.757812 0.71875 59.679688 C 0.691406 59.539062 0.664062 59.398438 0.632812 59.253906 C 0.0507812 56.199219 -0.0742188 53.175781 -0.0625 50.074219 C -0.0625 49.875 -0.0585938 49.675781 -0.0585938 49.472656 C -0.0507812 46.617188 0 43.816406 0.585938 41.015625 C 0.625 40.824219 0.664062 40.636719 0.703125 40.4375 C 2.679688 30.988281 6.960938 22.398438 13.671875 15.429688 C 13.796875 15.300781 13.917969 15.171875 14.046875 15.039062 C 15.832031 13.1875 17.648438 11.480469 19.726562 9.960938 C 19.953125 9.792969 20.175781 9.625 20.402344 9.457031 C 22 8.277344 23.660156 7.226562 25.390625 6.25 C 25.527344 6.171875 25.667969 6.09375 25.808594 6.011719 C 30.328125 3.46875 35.242188 1.757812 40.320312 0.71875 C 40.460938 0.691406 40.601562 0.664062 40.746094 0.632812 C 43.800781 0.0507812 46.824219 -0.0742188 49.925781 -0.0625 Z M 49.925781 -0.0625 "/>
<path style=" stroke:none;fill-rule:nonzero;fill:rgb(27.450982%,32.156864%,78.823531%);fill-opacity:1;" d="M 74.609375 18.75 C 75.359375 19.058594 75.832031 19.535156 76.402344 20.105469 C 76.550781 20.253906 76.550781 20.253906 76.703125 20.402344 C 77.035156 20.734375 77.367188 21.070312 77.699219 21.402344 C 77.9375 21.640625 78.175781 21.878906 78.414062 22.117188 C 79.0625 22.761719 79.707031 23.410156 80.355469 24.058594 C 81.03125 24.734375 81.707031 25.410156 82.382812 26.085938 C 83.515625 27.222656 84.652344 28.359375 85.785156 29.496094 C 87.097656 30.8125 88.414062 32.125 89.726562 33.441406 C 90.988281 34.703125 92.25 35.964844 93.515625 37.230469 C 94.050781 37.769531 94.589844 38.308594 95.128906 38.84375 C 95.761719 39.476562 96.394531 40.113281 97.023438 40.746094 C 97.257812 40.976562 97.488281 41.210938 97.722656 41.445312 C 98.039062 41.761719 98.355469 42.078125 98.671875 42.394531 C 98.847656 42.574219 99.027344 42.75 99.210938 42.933594 C 100.285156 44.078125 100.03125 46.003906 100.039062 47.488281 C 100.042969 47.671875 100.042969 47.855469 100.042969 48.046875 C 100.089844 55.765625 100.089844 55.765625 99.414062 58.984375 C 99.355469 59.269531 99.355469 59.269531 99.296875 59.5625 C 97.320312 69.011719 93.039062 77.601562 86.328125 84.570312 C 86.203125 84.699219 86.082031 84.828125 85.953125 84.960938 C 84.167969 86.8125 82.351562 88.519531 80.273438 90.039062 C 80.046875 90.207031 79.824219 90.375 79.597656 90.542969 C 78 91.722656 76.339844 92.773438 74.609375 93.75 C 74.472656 93.828125 74.332031 93.90625 74.191406 93.988281 C 69.671875 96.53125 64.757812 98.242188 59.679688 99.28125 C 59.539062 99.308594 59.398438 99.335938 59.253906 99.367188 C 58.773438 99.457031 58.296875 99.535156 57.8125 99.609375 C 57.582031 99.644531 57.355469 99.679688 57.117188 99.714844 C 54.914062 100.023438 52.722656 100.054688 50.5 100.039062 C 49.898438 100.035156 49.296875 100.035156 48.695312 100.035156 C 48.304688 100.035156 47.917969 100.035156 47.527344 100.03125 C 47.351562 100.03125 47.175781 100.03125 46.992188 100.03125 C 46.496094 100.027344 46.003906 100.015625 45.507812 100 C 45.355469 100 45.203125 100 45.046875 100.003906 C 42.878906 99.921875 41.324219 97.597656 39.875 96.148438 C 39.648438 95.917969 39.417969 95.691406 39.1875 95.460938 C 38.570312 94.84375 37.953125 94.222656 37.335938 93.605469 C 36.6875 92.957031 36.042969 92.308594 35.394531 91.664062 C 34.171875 90.4375 32.945312 89.210938 31.722656 87.988281 C 30.328125 86.589844 28.9375 85.195312 27.542969 83.800781 C 24.675781 80.933594 21.808594 78.066406 18.945312 75.195312 C 19.746094 75.195312 20.160156 75.613281 20.777344 76.074219 C 26.765625 80.453125 34.308594 83.585938 41.808594 83.632812 C 41.957031 83.636719 42.101562 83.636719 42.253906 83.636719 C 53.742188 83.722656 63.652344 80.203125 72.070312 72.265625 C 72.300781 72.050781 72.300781 72.050781 72.535156 71.832031 C 73.824219 70.59375 74.90625 69.203125 75.976562 67.773438 C 76.097656 67.609375 76.222656 67.449219 76.347656 67.28125 C 79.421875 63.042969 81.628906 58.132812 82.765625 53.027344 C 82.820312 52.765625 82.820312 52.765625 82.882812 52.5 C 83.480469 49.640625 83.667969 46.796875 83.65625 43.882812 C 83.65625 43.726562 83.652344 43.566406 83.652344 43.40625 C 83.644531 41.003906 83.546875 38.679688 83.007812 36.328125 C 82.96875 36.152344 82.929688 35.976562 82.890625 35.796875 C 81.550781 29.867188 78.972656 24.378906 75.183594 19.625 C 74.804688 19.140625 74.804688 19.140625 74.609375 18.75 Z M 74.609375 18.75 "/>
<path style=" stroke:none;fill-rule:nonzero;fill:rgb(97.647059%,50.980395%,14.901961%);fill-opacity:1;" d="M 67.578125 20.703125 C 71.617188 22.722656 74.378906 28.964844 75.78125 33.007812 C 78.789062 42.195312 77.992188 51.542969 73.652344 60.148438 C 71.339844 64.566406 67.855469 68.34375 63.867188 71.289062 C 63.753906 71.371094 63.640625 71.457031 63.523438 71.542969 C 60.015625 74.101562 55.644531 76.136719 51.367188 76.953125 C 51.230469 76.980469 51.09375 77.007812 50.957031 77.035156 C 43.1875 78.480469 35.261719 77.476562 28.320312 73.632812 C 28.085938 73.507812 27.847656 73.382812 27.613281 73.257812 C 25.003906 71.847656 22.84375 69.996094 20.703125 67.96875 C 21.019531 67.183594 21.574219 66.65625 22.164062 66.070312 C 22.273438 65.960938 22.386719 65.847656 22.5 65.734375 C 22.867188 65.363281 23.242188 64.996094 23.613281 64.625 C 23.878906 64.359375 24.144531 64.09375 24.410156 63.828125 C 25.128906 63.105469 25.851562 62.386719 26.574219 61.664062 C 27.332031 60.914062 28.085938 60.160156 28.839844 59.40625 C 30.265625 57.980469 31.695312 56.550781 33.125 55.125 C 34.753906 53.503906 36.378906 51.878906 38.007812 50.253906 C 41.351562 46.914062 44.699219 43.574219 48.046875 40.234375 C 48.152344 40.289062 48.261719 40.34375 48.371094 40.402344 C 48.511719 40.472656 48.648438 40.546875 48.792969 40.617188 C 48.933594 40.691406 49.070312 40.761719 49.214844 40.835938 C 49.984375 41.1875 50.742188 41.132812 51.5625 41.015625 C 52.21875 40.761719 52.21875 40.761719 52.734375 40.429688 C 52.929688 40.367188 53.121094 40.300781 53.320312 40.234375 C 53.769531 39.53125 54.011719 38.671875 54.296875 37.890625 C 54.4375 37.898438 54.574219 37.902344 54.71875 37.910156 C 56.238281 37.953125 57.160156 37.84375 58.363281 36.851562 C 59.320312 35.671875 59.226562 34.460938 59.179688 33.007812 C 59.460938 32.882812 59.742188 32.753906 60.023438 32.628906 C 60.257812 32.523438 60.257812 32.523438 60.496094 32.417969 C 60.9375 32.226562 60.9375 32.226562 61.523438 32.03125 C 61.746094 31.683594 61.746094 31.683594 61.914062 31.25 C 62.023438 31.042969 62.023438 31.042969 62.132812 30.835938 C 62.628906 29.207031 62.292969 28.296875 61.523438 26.757812 C 63.523438 24.757812 65.519531 22.761719 67.578125 20.703125 Z M 67.578125 20.703125 "/>
<path style=" stroke:none;fill-rule:nonzero;fill:rgb(96.078432%,36.078432%,13.725491%);fill-opacity:1;" d="M 67.578125 20.703125 C 71.617188 22.722656 74.378906 28.964844 75.78125 33.007812 C 78.789062 42.195312 77.992188 51.542969 73.652344 60.148438 C 72.503906 62.339844 71.042969 64.28125 69.457031 66.175781 C 69.359375 66.292969 69.261719 66.410156 69.164062 66.53125 C 68.320312 67.515625 68.320312 67.515625 67.578125 67.578125 C 67.101562 67.179688 66.695312 66.792969 66.273438 66.34375 C 66.078125 66.140625 66.078125 66.140625 65.878906 65.9375 C 65.597656 65.644531 65.316406 65.355469 65.035156 65.0625 C 64.589844 64.597656 64.144531 64.136719 63.695312 63.679688 C 62.417969 62.371094 61.144531 61.0625 59.882812 59.742188 C 59.109375 58.9375 58.328125 58.140625 57.546875 57.34375 C 57.25 57.039062 56.953125 56.734375 56.664062 56.421875 C 55.183594 54.707031 55.183594 54.707031 53.214844 53.792969 C 52.589844 53.847656 52.589844 53.847656 52.039062 54.03125 C 51.804688 54.066406 51.804688 54.066406 51.5625 54.101562 C 50.992188 53.648438 50.691406 53.242188 50.46875 52.550781 C 50.398438 52.335938 50.398438 52.335938 50.324219 52.117188 C 50.277344 51.972656 50.230469 51.824219 50.183594 51.671875 C 50.089844 51.378906 49.992188 51.085938 49.894531 50.792969 C 49.855469 50.664062 49.8125 50.535156 49.769531 50.402344 C 49.378906 49.421875 48.792969 48.746094 48.046875 48.007812 C 47.953125 47.917969 47.859375 47.824219 47.765625 47.726562 C 47.46875 47.433594 47.171875 47.144531 46.875 46.851562 C 46.675781 46.652344 46.476562 46.457031 46.277344 46.257812 C 45.910156 45.894531 45.546875 45.535156 45.179688 45.171875 C 44.832031 44.828125 44.484375 44.484375 44.140625 44.140625 C 45.429688 42.851562 46.71875 41.5625 48.046875 40.234375 C 48.5625 40.492188 49.078125 40.75 49.609375 41.015625 C 50.78125 41.226562 51.714844 41.050781 52.734375 40.429688 C 52.929688 40.367188 53.121094 40.300781 53.320312 40.234375 C 53.769531 39.53125 54.011719 38.671875 54.296875 37.890625 C 54.4375 37.898438 54.574219 37.902344 54.71875 37.910156 C 56.238281 37.953125 57.160156 37.84375 58.363281 36.851562 C 59.320312 35.671875 59.226562 34.460938 59.179688 33.007812 C 59.460938 32.882812 59.742188 32.753906 60.023438 32.628906 C 60.257812 32.523438 60.257812 32.523438 60.496094 32.417969 C 60.9375 32.226562 60.9375 32.226562 61.523438 32.03125 C 61.746094 31.683594 61.746094 31.683594 61.914062 31.25 C 62.023438 31.042969 62.023438 31.042969 62.132812 30.835938 C 62.628906 29.207031 62.292969 28.296875 61.523438 26.757812 C 63.523438 24.757812 65.519531 22.761719 67.578125 20.703125 Z M 67.578125 20.703125 "/>
<path style=" stroke:none;fill-rule:nonzero;fill:rgb(60.000002%,85.09804%,38.82353%);fill-opacity:1;" d="M 72.070312 16.210938 C 75.742188 18.046875 78.621094 23.90625 80.273438 27.539062 C 80.375 27.757812 80.375 27.757812 80.476562 27.984375 C 82.417969 32.304688 83.796875 37.039062 83.828125 41.808594 C 83.832031 41.957031 83.832031 42.101562 83.832031 42.253906 C 83.835938 42.722656 83.835938 43.195312 83.835938 43.664062 C 83.839844 43.824219 83.839844 43.988281 83.839844 44.152344 C 83.835938 46.792969 83.691406 49.355469 83.203125 51.953125 C 83.179688 52.09375 83.152344 52.238281 83.128906 52.382812 C 81.808594 59.65625 77.832031 66.527344 72.734375 71.789062 C 72.480469 72.050781 72.226562 72.320312 71.976562 72.585938 C 70.683594 73.929688 69.261719 75.058594 67.773438 76.171875 C 67.609375 76.292969 67.449219 76.417969 67.28125 76.542969 C 60.476562 81.480469 52.242188 83.890625 43.882812 83.851562 C 43.726562 83.851562 43.566406 83.847656 43.40625 83.847656 C 41.003906 83.839844 38.679688 83.742188 36.328125 83.203125 C 36.066406 83.144531 36.066406 83.144531 35.796875 83.085938 C 28.804688 81.503906 22.488281 78.210938 17.277344 73.289062 C 16.800781 72.832031 16.800781 72.832031 16.210938 72.460938 C 16.511719 71.746094 16.945312 71.292969 17.496094 70.75 C 17.757812 70.488281 17.757812 70.488281 18.023438 70.222656 C 18.207031 70.042969 18.390625 69.863281 18.578125 69.679688 C 18.765625 69.492188 18.953125 69.308594 19.136719 69.125 C 19.59375 68.671875 20.050781 68.222656 20.507812 67.773438 C 20.714844 67.949219 20.917969 68.125 21.125 68.300781 C 21.25 68.410156 21.375 68.515625 21.503906 68.625 C 21.808594 68.890625 22.113281 69.152344 22.417969 69.417969 C 28.316406 74.46875 35.796875 77.4375 43.589844 77.417969 C 43.734375 77.417969 43.878906 77.417969 44.027344 77.417969 C 47.878906 77.40625 51.648438 76.9375 55.273438 75.585938 C 55.625 75.460938 55.625 75.460938 55.984375 75.332031 C 60.316406 73.699219 63.960938 71.25 67.382812 68.164062 C 67.527344 68.03125 67.675781 67.898438 67.824219 67.765625 C 69.058594 66.589844 70.082031 65.230469 71.09375 63.867188 C 71.179688 63.753906 71.261719 63.640625 71.347656 63.523438 C 72.867188 61.441406 73.96875 59.191406 75 56.835938 C 75.058594 56.699219 75.121094 56.566406 75.183594 56.425781 C 76.597656 53.21875 77.363281 49.394531 77.382812 45.898438 C 77.382812 45.753906 77.386719 45.605469 77.386719 45.453125 C 77.386719 45.144531 77.390625 44.835938 77.390625 44.523438 C 77.390625 44.0625 77.398438 43.601562 77.40625 43.136719 C 77.417969 41.125 77.207031 39.265625 76.757812 37.304688 C 76.71875 37.121094 76.675781 36.941406 76.632812 36.753906 C 76.527344 36.304688 76.414062 35.859375 76.292969 35.414062 C 76.230469 35.179688 76.230469 35.179688 76.167969 34.941406 C 74.625 29.335938 71.503906 24.859375 67.773438 20.507812 C 69.191406 19.089844 70.609375 17.671875 72.070312 16.210938 Z M 72.070312 16.210938 "/>
<path style=" stroke:none;fill-rule:nonzero;fill:rgb(41.568628%,74.509805%,28.235295%);fill-opacity:1;" d="M 72.070312 16.210938 C 75.742188 18.046875 78.621094 23.90625 80.273438 27.539062 C 80.339844 27.6875 80.40625 27.832031 80.476562 27.984375 C 82.417969 32.304688 83.796875 37.039062 83.828125 41.808594 C 83.832031 41.957031 83.832031 42.101562 83.832031 42.253906 C 83.835938 42.722656 83.835938 43.195312 83.835938 43.664062 C 83.839844 43.824219 83.839844 43.988281 83.839844 44.152344 C 83.835938 46.792969 83.691406 49.355469 83.203125 51.953125 C 83.179688 52.09375 83.152344 52.238281 83.128906 52.382812 C 81.875 59.285156 78.195312 65.839844 73.523438 70.996094 C 73.375 71.160156 73.375 71.160156 73.226562 71.328125 C 72.984375 71.585938 72.722656 71.832031 72.460938 72.070312 C 71.875 72.070312 71.875 72.070312 71.609375 71.816406 C 71.460938 71.632812 71.460938 71.632812 71.3125 71.449219 C 70.632812 70.632812 69.90625 69.886719 69.152344 69.140625 C 69.039062 69.027344 68.921875 68.910156 68.800781 68.792969 C 68.523438 68.515625 68.246094 68.242188 67.96875 67.96875 C 68.296875 67.167969 68.867188 66.589844 69.433594 65.953125 C 73.695312 61.066406 76.121094 55.1875 77.148438 48.828125 C 77.199219 48.503906 77.199219 48.503906 77.253906 48.175781 C 77.347656 47.414062 77.378906 46.664062 77.382812 45.898438 C 77.386719 45.679688 77.386719 45.679688 77.386719 45.453125 C 77.386719 45.144531 77.390625 44.835938 77.390625 44.523438 C 77.390625 44.0625 77.398438 43.601562 77.40625 43.136719 C 77.417969 41.125 77.207031 39.265625 76.757812 37.304688 C 76.71875 37.121094 76.675781 36.941406 76.632812 36.753906 C 76.527344 36.304688 76.414062 35.859375 76.292969 35.414062 C 76.253906 35.257812 76.210938 35.101562 76.167969 34.941406 C 74.625 29.335938 71.503906 24.859375 67.773438 20.507812 C 69.191406 19.089844 70.609375 17.671875 72.070312 16.210938 Z M 72.070312 16.210938 "/>
<path style=" stroke:none;fill-rule:nonzero;fill:rgb(34.901962%,35.686275%,38.82353%);fill-opacity:1;" d="M 37.890625 61.71875 C 39.289062 61.808594 40.953125 61.980469 41.945312 63.074219 C 42.28125 63.628906 42.253906 64.011719 42.1875 64.648438 C 42.011719 65.207031 41.824219 65.40625 41.371094 65.785156 C 40.644531 66.089844 40.207031 66.015625 39.453125 65.820312 C 38.753906 65.328125 38.585938 64.546875 38.34375 63.769531 C 38.296875 63.636719 38.253906 63.503906 38.210938 63.367188 C 38.023438 62.796875 37.890625 62.324219 37.890625 61.71875 Z M 37.890625 61.71875 "/>
<path style=" stroke:none;fill-rule:nonzero;fill:rgb(21.960784%,22.352941%,24.705882%);fill-opacity:1;" d="M 61.71875 37.890625 C 63.074219 38.109375 64.410156 38.40625 65.625 39.0625 C 66.085938 39.753906 66.128906 40.003906 66.015625 40.820312 C 65.660156 41.390625 65.261719 41.882812 64.648438 42.1875 C 63.996094 42.257812 63.617188 42.28125 63.0625 41.917969 C 62.191406 40.703125 61.828125 39.363281 61.71875 37.890625 Z M 61.71875 37.890625 "/>
<path style=" stroke:none;fill-rule:nonzero;fill:rgb(21.960784%,22.352941%,24.705882%);fill-opacity:1;" d="M 64.648438 52.734375 C 66.097656 52.917969 67.300781 53.140625 68.554688 53.90625 C 69.015625 54.597656 69.058594 54.847656 68.945312 55.664062 C 68.589844 56.234375 68.191406 56.726562 67.578125 57.03125 C 66.914062 57.101562 66.550781 57.140625 66.011719 56.730469 C 65.527344 56.125 65.3125 55.5 65.085938 54.773438 C 65.042969 54.640625 65 54.511719 64.957031 54.375 C 64.777344 53.808594 64.648438 53.335938 64.648438 52.734375 Z M 64.648438 52.734375 "/>
<path style=" stroke:none;fill-rule:nonzero;fill:rgb(34.117648%,34.901962%,38.039216%);fill-opacity:1;" d="M 49.804688 49.804688 C 51.160156 50.023438 52.496094 50.320312 53.710938 50.976562 C 54.171875 51.667969 54.214844 51.917969 54.101562 52.734375 C 53.746094 53.304688 53.347656 53.796875 52.734375 54.101562 C 51.707031 54.214844 51.707031 54.214844 51.167969 53.792969 C 50.691406 53.210938 50.488281 52.664062 50.242188 51.953125 C 50.160156 51.714844 50.078125 51.476562 49.992188 51.234375 C 49.804688 50.585938 49.804688 50.585938 49.804688 49.804688 Z M 49.804688 49.804688 "/>
<path style=" stroke:none;fill-rule:nonzero;fill:rgb(34.901962%,35.686275%,38.82353%);fill-opacity:1;" d="M 52.734375 64.648438 C 54.089844 64.867188 55.425781 65.164062 56.640625 65.820312 C 57.101562 66.511719 57.144531 66.761719 57.03125 67.578125 C 56.675781 68.148438 56.277344 68.640625 55.664062 68.945312 C 55.101562 69.007812 55.101562 69.007812 54.492188 68.945312 C 53.382812 68.035156 52.984375 66.582031 52.78125 65.199219 C 52.757812 64.925781 52.757812 64.925781 52.734375 64.648438 Z M 52.734375 64.648438 "/>
<path style=" stroke:none;fill-rule:nonzero;fill:rgb(21.960784%,22.745098%,24.705882%);fill-opacity:1;" d="M 49.804688 49.804688 C 51.160156 50.023438 52.496094 50.320312 53.710938 50.976562 C 54.164062 51.652344 54.167969 51.9375 54.101562 52.734375 C 53.90625 53.023438 53.90625 53.023438 53.710938 53.320312 C 53.125 53.058594 52.71875 52.765625 52.269531 52.308594 C 52.148438 52.1875 52.03125 52.066406 51.90625 51.941406 C 51.785156 51.816406 51.664062 51.691406 51.539062 51.5625 C 51.414062 51.4375 51.289062 51.3125 51.164062 51.183594 C 50.933594 50.949219 50.707031 50.71875 50.476562 50.484375 C 50.253906 50.257812 50.03125 50.03125 49.804688 49.804688 Z M 49.804688 49.804688 "/>
<path style=" stroke:none;fill-rule:nonzero;fill:rgb(31.37255%,39.215687%,74.509805%);fill-opacity:1;" d="M 74.609375 18.75 C 75.351562 19.042969 75.707031 19.484375 76.171875 20.117188 C 75.976562 20.117188 75.785156 20.117188 75.585938 20.117188 C 75.316406 19.816406 75.316406 19.816406 75.0625 19.433594 C 74.976562 19.308594 74.890625 19.179688 74.800781 19.050781 C 74.707031 18.902344 74.707031 18.902344 74.609375 18.75 Z M 74.609375 18.75 "/>
</g>
</svg>
